<?xml version="1.0" standalone="no"?>
<!DOCTYPE svg PUBLIC "-//W3C//DTD SVG 20010904//EN"
 "http://www.w3.org/TR/2001/REC-SVG-20010904/DTD/svg10.dtd">
<svg version="1.0" xmlns="http://www.w3.org/2000/svg"
 width="666.000000pt" height="666.000000pt" viewBox="0 0 666.000000 666.000000"
 preserveAspectRatio="xMidYMid meet">
<metadata>
Created by potrace 1.11, written by Peter Selinger 2001-2013
</metadata>
<g transform="translate(0.000000,666.000000) scale(0.100000,-0.100000)"
fill="#000000" stroke="none">
<path d="M0 3330 l0 -3330 3330 0 3330 0 0 3330 0 3330 -3330 0 -3330 0 0
-3330z m5460 2700 c-8 -5 -17 -7 -19 -4 -3 3 1 9 9 14 8 5 17 7 19 4 3 -3 -1
-9 -9 -14z m160 -45 c0 -5 -5 -3 -10 5 -5 8 -10 20 -10 25 0 6 5 3 10 -5 5 -8
10 -19 10 -25z m-197 10 c-3 -9 -8 -14 -10 -11 -3 3 -2 9 2 15 9 16 15 13 8
-4z m-3714 -7 c11 -11 12 -10 6 1 -5 9 -3 12 6 9 8 -3 14 -14 15 -25 1 -12 11
-31 22 -43 12 -13 19 -26 17 -30 -2 -4 2 -7 10 -7 11 0 10 5 -2 24 -8 13 -13
23 -11 23 3 0 25 -28 49 -62 23 -35 67 -90 97 -123 48 -53 124 -189 146 -263
4 -12 12 -20 17 -17 5 4 9 -1 9 -9 0 -9 -4 -16 -9 -16 -13 0 -23 -49 -16 -81
9 -40 23 -36 23 5 0 40 30 136 42 136 4 0 2 -21 -6 -47 -8 -25 -14 -52 -14
-60 0 -17 19 -17 24 0 20 72 84 253 103 292 64 127 187 276 214 260 8 -5 10
-4 5 3 -4 7 -2 12 4 12 22 0 34 -48 23 -95 -7 -30 -7 -47 1 -55 7 -7 7 -10 -1
-10 -6 0 -18 -22 -27 -49 -18 -57 -20 -73 -6 -51 15 22 5 -82 -14 -150 -9 -30
-15 -64 -15 -75 1 -11 6 0 11 25 5 25 14 50 20 55 7 7 8 0 3 -22 -3 -18 -6
-57 -6 -88 0 -61 -13 -72 -29 -22 -9 31 -10 31 -4 -8 3 -22 11 -46 17 -54 9
-11 9 -15 0 -18 -7 -3 -13 -19 -13 -35 0 -17 -13 -70 -30 -117 -39 -112 -60
-207 -49 -218 5 -5 0 -25 -12 -48 -17 -33 -21 -56 -20 -133 2 -107 7 -125 51
-172 31 -33 33 -34 40 -15 11 27 17 9 29 -80 l10 -70 -4 82 c-2 45 -8 90 -14
101 -13 25 -15 60 -2 47 9 -12 27 -81 37 -144 4 -29 15 -52 32 -68 26 -24 44
-24 24 0 -8 9 -9 24 -2 48 6 18 10 45 10 59 0 14 9 43 20 65 l20 39 0 -78 c0
-65 -2 -77 -15 -72 -10 4 -15 -1 -16 -17 -2 -27 -4 -44 -23 -172 -9 -55 -15
-106 -16 -113 0 -7 -4 -10 -10 -7 -6 4 -10 -5 -10 -20 0 -15 -4 -24 -10 -20
-5 3 -10 16 -10 27 0 12 -3 19 -6 15 -12 -12 6 -56 26 -62 13 -4 20 -15 20
-31 0 -14 -4 -22 -10 -19 -6 4 -10 -7 -10 -26 0 -31 1 -32 15 -13 13 17 14 14
15 -38 0 -32 -4 -58 -10 -58 -5 0 -10 13 -10 29 0 17 -5 33 -11 37 -7 4 -9 0
-6 -12 3 -11 8 -32 11 -47 4 -15 11 -25 16 -22 8 5 15 -21 12 -46 -1 -4 8 -38
18 -75 23 -81 22 -74 11 -74 -5 0 -11 6 -14 13 -2 6 -2 3 1 -8 3 -11 6 -55 8
-98 2 -72 14 -107 35 -107 5 0 9 5 9 11 0 5 -4 8 -9 5 -5 -3 -12 1 -15 10 -9
24 -7 44 4 44 6 0 10 -7 10 -15 0 -8 4 -15 10 -15 6 0 5 10 -2 25 -8 18 -8 29
-1 36 23 23 32 -1 27 -67 -4 -48 -3 -64 5 -59 6 3 11 12 10 18 -1 7 0 30 1 52
l2 40 13 -45 c7 -25 14 -40 14 -35 2 18 21 -20 21 -42 0 -13 9 -32 20 -43 11
-11 20 -22 20 -25 0 -6 43 -47 66 -63 20 -13 64 -34 98 -46 18 -6 19 -8 2 -24
-15 -15 -18 -15 -26 -2 -6 9 -10 10 -10 3 0 -6 5 -15 10 -18 6 -3 10 -15 10
-26 0 -11 -4 -18 -9 -14 -6 3 -9 -4 -8 -15 1 -19 3 -19 13 -6 10 15 34 22 34
11 0 -10 -39 -43 -44 -38 -3 4 -6 -1 -6 -10 0 -10 5 -17 10 -17 6 0 10 -10 10
-22 0 -21 0 -21 -15 -2 -8 10 -15 14 -15 8 0 -5 5 -15 12 -22 9 -9 9 -15 1
-23 -6 -6 -9 -18 -6 -25 9 -24 -14 -15 -31 11 -19 28 -14 57 13 90 10 13 7 12
-12 -4 -15 -14 -27 -35 -27 -47 0 -16 -4 -22 -14 -18 -10 4 -13 0 -10 -13 3
-11 -3 -26 -15 -37 -23 -21 -28 -38 -8 -31 6 3 17 -5 22 -17 12 -25 38 -38 29
-14 -4 10 0 18 10 22 9 3 16 13 16 21 0 8 5 13 12 11 21 -7 20 -25 -2 -31 -11
-3 -20 -10 -20 -16 0 -9 6 -9 22 0 16 9 23 9 26 0 2 -6 8 -11 13 -11 6 0 6 8
-1 19 -15 28 -13 46 3 33 7 -6 21 -36 31 -66 11 -31 23 -56 28 -56 4 0 8 -4 8
-9 0 -16 -28 -6 -54 18 -15 14 -30 20 -37 16 -8 -5 -10 -4 -5 4 8 12 -20 28
-31 18 -8 -9 40 -62 56 -62 28 0 20 -20 -9 -22 -17 -1 -30 2 -30 7 0 5 -7 7
-15 4 -8 -4 -15 -1 -15 6 0 7 -7 10 -16 6 -9 -4 -24 -1 -33 6 -14 12 -14 11
-2 -4 7 -10 22 -18 31 -18 10 0 20 -6 22 -12 3 -8 20 -12 44 -11 31 2 35 1 18
-6 -12 -5 -30 -8 -40 -7 -11 2 -24 -4 -31 -13 -11 -15 -12 -15 -13 1 0 9 6 19
13 22 6 3 -7 5 -29 3 -33 -2 -41 1 -37 13 3 10 -1 8 -11 -4 -9 -11 -16 -14
-16 -7 0 7 -4 10 -9 7 -5 -3 -14 1 -21 9 -11 13 -10 14 3 10 8 -4 18 -1 23 6
4 7 3 10 -4 5 -6 -3 -22 -1 -36 5 -22 10 -26 19 -26 56 0 23 -4 43 -9 43 -4 0
-7 -17 -7 -37 1 -21 -3 -44 -9 -52 -8 -12 -6 -13 6 -9 9 3 22 3 29 -2 8 -5 2
-10 -21 -15 -29 -7 -36 -4 -56 21 -26 32 -30 66 -10 86 8 8 10 22 6 38 l-7 25
-1 -27 c-1 -38 -21 -46 -21 -9 0 16 -5 33 -10 36 -6 4 -8 12 -4 18 3 7 -2 3
-10 -7 -9 -11 -19 -16 -23 -12 -4 4 -1 11 7 16 23 14 -3 34 -31 24 -13 -4 -28
-7 -33 -5 -5 1 -12 -3 -16 -10 -4 -6 -13 -8 -20 -4 -8 5 -4 15 14 34 18 18 24
33 19 49 -9 37 -29 25 -24 -15 3 -22 -14 -14 -37 17 -26 34 -28 44 -7 36 13
-5 13 -2 -1 19 -18 27 -15 41 26 130 29 63 81 122 98 111 6 -4 13 -2 17 4 10
16 28 12 21 -6 -3 -8 -2 -12 4 -9 6 3 10 15 10 26 0 10 4 19 8 19 5 0 5 24 1
53 -4 28 -8 60 -8 70 -1 27 -20 20 -27 -10 -3 -16 -8 -35 -12 -43 -6 -16 -9
-28 -11 -47 0 -6 -26 -40 -56 -75 -30 -34 -55 -68 -55 -74 0 -7 -7 -25 -15
-40 -8 -16 -15 -36 -15 -45 0 -31 -25 -41 -51 -21 -13 10 -39 24 -58 32 -18 7
-44 25 -58 39 -21 22 -24 23 -19 6 33 -112 23 -157 -27 -134 -26 12 -27 15
-27 91 0 45 4 78 10 78 6 0 9 19 8 43 -1 36 -2 38 -5 10 -6 -51 -28 -40 -80
40 -79 118 -180 328 -167 348 3 5 1 9 -4 9 -22 0 -191 494 -191 555 0 17 -7
80 -16 140 -10 72 -18 216 -22 420 -6 321 -7 299 41 740 8 65 18 121 22 122 5
2 8 34 7 73 -2 71 2 80 26 58z m3731 -44 c0 -8 -5 -12 -10 -9 -6 4 -8 11 -5
16 9 14 15 11 15 -7z m-1530 -113 c-31 -61 -40 -49 -11 14 14 30 27 48 29 40
2 -7 -6 -32 -18 -54z m1550 54 c0 -8 -4 -15 -10 -15 -5 0 -10 7 -10 15 0 8 5
15 10 15 6 0 10 -7 10 -15z m-920 -6 c0 -7 -9 -9 -24 -5 -18 4 -31 -2 -55 -26
-31 -31 -49 -33 -37 -3 11 30 116 61 116 34z m140 -9 c0 -5 -9 -10 -21 -10
-11 0 -17 5 -14 10 3 6 13 10 21 10 8 0 14 -4 14 -10z m-115 -21 c11 -17 -1
-21 -15 -4 -8 9 -8 15 -2 15 6 0 14 -5 17 -11z m-875 -9 c11 -7 7 -10 -17 -10
-18 0 -33 5 -33 10 0 13 30 13 50 0z m40 0 c0 -5 -4 -10 -10 -10 -5 0 -10 5
-10 10 0 6 5 10 10 10 6 0 10 -4 10 -10z m143 -5 c-3 -9 -8 -14 -10 -11 -3 3
-2 9 2 15 9 16 15 13 8 -4z m767 5 c-8 -5 -19 -10 -25 -10 -5 0 -3 5 5 10 8 5
20 10 25 10 6 0 3 -5 -5 -10z m290 6 c0 -2 -7 -7 -16 -10 -8 -3 -12 -2 -9 4 6
10 25 14 25 6z m-1310 -16 c0 -5 -7 -10 -15 -10 -8 0 -15 5 -15 10 0 6 7 10
15 10 8 0 15 -4 15 -10z m1695 -11 c11 -17 -1 -21 -15 -4 -8 9 -8 15 -2 15 6
0 14 -5 17 -11z m-1545 -13 c34 -10 45 -18 45 -34 0 -11 3 -23 7 -27 3 -4 50
-9 103 -11 52 -2 105 -9 117 -15 16 -9 22 -8 29 2 7 11 14 7 34 -16 13 -16 24
-33 25 -37 0 -5 8 -8 18 -8 11 0 18 -7 18 -20 0 -11 -4 -20 -8 -20 -4 0 -8 6
-8 13 0 16 -65 51 -79 43 -14 -9 -53 12 -46 24 10 17 -17 22 -33 6 -15 -15
-15 -16 0 -16 8 0 18 -9 21 -20 3 -11 1 -18 -4 -14 -16 10 -9 -9 9 -22 13 -10
14 -13 3 -14 -10 0 -8 -6 8 -21 12 -12 20 -23 17 -26 -7 -8 -42 34 -62 75 -9
17 -21 32 -26 32 -5 0 -16 7 -24 15 -26 25 -54 19 -55 -12 0 -28 -1 -28 -11
-5 -6 12 -15 22 -20 22 -5 0 -22 16 -39 35 -17 19 -38 35 -48 34 -12 0 -10 -3
7 -11 23 -11 32 -34 10 -25 -7 3 -21 8 -30 12 -11 4 -18 3 -18 -4 0 -6 -7 -11
-15 -11 -9 0 -18 -7 -21 -15 -4 -8 -11 -15 -17 -15 -7 0 -7 4 1 12 7 7 12 22
12 34 0 13 10 30 23 39 l22 17 -22 -7 c-17 -5 -23 -2 -23 9 0 19 21 20 80 2z
m-903 -18 c-3 -8 -6 -5 -6 6 -1 11 2 17 5 13 3 -3 4 -12 1 -19z m112 8 c10
-12 8 -13 -8 -9 -12 3 -21 9 -21 14 0 14 16 11 29 -5z m568 8 c-3 -3 -12 -4
-19 -1 -8 3 -5 6 6 6 11 1 17 -2 13 -5z m113 -1 c0 -5 -15 -8 -34 -8 -19 0
-32 3 -29 8 2 4 17 7 34 7 16 0 29 -3 29 -7z m1110 -13 c6 -11 8 -20 6 -20 -3
0 -10 9 -16 20 -6 11 -8 20 -6 20 3 0 10 -9 16 -20z m-420 -5 c-33 -19 -49
-19 -24 0 10 8 26 14 34 14 9 0 4 -6 -10 -14z m667 -11 c-7 -7 -37 7 -37 17 0
6 9 5 21 -1 11 -7 19 -14 16 -16z m-1163 1 c3 -9 0 -15 -9 -15 -9 0 -12 6 -9
15 4 8 7 15 9 15 2 0 5 -7 9 -15z m861 5 c3 -5 1 -10 -4 -10 -6 0 -11 5 -11
10 0 6 2 10 4 10 3 0 8 -4 11 -10z m-1815 -10 c0 -5 -4 -10 -10 -10 -5 0 -10
5 -10 10 0 6 5 10 10 10 6 0 10 -4 10 -10z m770 7 c0 -2 -10 -12 -21 -23 -22
-19 -22 -19 -10 4 10 18 31 31 31 19z m250 -23 c0 -2 -9 -4 -20 -4 -11 0 -20
4 -20 9 0 5 9 7 20 4 11 -3 20 -7 20 -9z m100 -4 c0 -12 -8 -12 -35 0 -18 8
-17 9 8 9 15 1 27 -3 27 -9z m115 -20 c3 -5 2 -10 -4 -10 -5 0 -13 5 -16 10
-3 6 -2 10 4 10 5 0 13 -4 16 -10z m1175 -11 c0 -5 -4 -9 -10 -9 -5 0 -10 7
-10 16 0 8 5 12 10 9 6 -3 10 -10 10 -16z m90 -26 c0 -12 -4 -24 -9 -27 -5 -3
-9 13 -9 36 -1 30 2 38 8 28 6 -8 10 -25 10 -37z m-2615 17 c3 -5 2 -10 -4
-10 -5 0 -13 5 -16 10 -3 6 -2 10 4 10 5 0 13 -4 16 -10z m160 1 c3 -5 1 -12
-5 -16 -5 -3 -10 1 -10 9 0 18 6 21 15 7z m2312 3 c-3 -3 -12 -4 -19 -1 -8 3
-5 6 6 6 11 1 17 -2 13 -5z m-2522 -14 c8 -13 -5 -13 -25 0 -13 8 -13 10 2 10
9 0 20 -4 23 -10z m759 -5 c-4 -8 -8 -15 -10 -15 -2 0 -4 7 -4 15 0 8 4 15 10
15 5 0 7 -7 4 -15z m154 -10 c-6 -14 -15 -25 -20 -25 -11 0 -10 7 4 30 18 29
30 25 16 -5z m172 -1 c12 -32 12 -34 0 -34 -5 0 -10 9 -10 20 0 10 -8 24 -17
29 -17 10 -17 10 0 11 10 0 22 -11 27 -26z m40 -39 c0 -17 -2 -17 -10 -5 -5 8
-10 24 -10 35 0 17 2 17 10 5 5 -8 10 -24 10 -35z m60 29 c0 -8 -5 -12 -10 -9
-6 4 -8 11 -5 16 9 14 15 11 15 -7z m1350 6 c0 -5 -4 -10 -9 -10 -6 0 -13 5
-16 10 -3 6 1 10 9 10 9 0 16 -4 16 -10z m-2725 -11 c-5 -7 7 -9 34 -6 23 2
41 0 41 -4 0 -5 -11 -9 -24 -9 -13 0 -37 -3 -54 -6 -28 -6 -30 -4 -25 15 3 11
12 21 20 21 8 0 11 -5 8 -11z m173 -8 c3 -8 -1 -12 -9 -9 -7 2 -15 10 -17 17
-3 8 1 12 9 9 7 -2 15 -10 17 -17z m53 -1 c5 0 9 -4 9 -8 0 -14 -43 -7 -48 8
-3 9 1 11 12 7 10 -4 22 -7 27 -7z m289 5 c0 -6 -33 -19 -75 -29 -42 -10 -20
10 25 22 43 13 50 13 50 7z m35 -5 c3 -5 1 -10 -4 -10 -6 0 -11 5 -11 10 0 6
2 10 4 10 3 0 8 -4 11 -10z m2659 1 c4 -5 -3 -7 -14 -4 -23 6 -26 13 -6 13 8
0 17 -4 20 -9z m-1541 -25 c-18 -24 -33 -25 -33 -4 0 6 3 9 6 5 4 -3 13 0 21
8 22 23 26 18 6 -9z m1002 -24 c-7 -7 -55 27 -55 39 0 5 13 0 30 -12 16 -13
28 -25 25 -27z m-2091 26 c-5 -7 -2 -9 9 -5 11 4 14 2 11 -8 -5 -11 -11 -11
-30 -3 -18 8 -21 14 -12 20 19 11 30 10 22 -4z m1146 2 c-20 -13 -33 -13 -25
0 3 6 14 10 23 10 15 0 15 -2 2 -10z m380 0 c0 -5 -5 -10 -11 -10 -5 0 -7 5
-4 10 3 6 8 10 11 10 2 0 4 -4 4 -10z m-1990 -10 c0 -5 -6 -7 -14 -4 -8 3 -17
1 -21 -5 -3 -6 -12 -11 -18 -11 -16 1 23 30 40 30 7 0 13 -4 13 -10z m140 -5
c0 -9 -9 -15 -22 -15 -21 0 -21 0 -2 15 24 18 24 18 24 0z m90 5 c0 -5 -2 -10
-4 -10 -3 0 -8 5 -11 10 -3 6 -1 10 4 10 6 0 11 -4 11 -10z m-370 -4 c0 -3 -4
-8 -10 -11 -5 -3 -10 -1 -10 4 0 6 5 11 10 11 6 0 10 -2 10 -4z m220 -6 c0 -5
-2 -10 -4 -10 -3 0 -8 5 -11 10 -3 6 -1 10 4 10 6 0 11 -4 11 -10z m294 4 c9
-3 16 -10 16 -15 0 -6 -8 -5 -19 1 -11 5 -27 7 -37 3 -12 -4 -15 -3 -10 5 8
13 26 15 50 6z m72 -15 c8 -14 -10 -11 -32 6 -18 13 -18 14 4 8 12 -3 25 -9
28 -14z m1254 11 c0 -5 -2 -10 -4 -10 -3 0 -8 5 -11 10 -3 6 -1 10 4 10 6 0
11 -4 11 -10z m417 -12 c-3 -8 -6 -5 -6 6 -1 11 2 17 5 13 3 -3 4 -12 1 -19z
m-1917 2 c0 -5 -4 -10 -9 -10 -6 0 -13 5 -16 10 -3 6 1 10 9 10 9 0 16 -4 16
-10z m103 -20 c3 -11 1 -20 -4 -20 -5 0 -9 2 -9 4 0 2 -3 11 -6 20 -3 9 -2 16
4 16 5 0 12 -9 15 -20z m1107 10 c0 -5 -2 -10 -4 -10 -3 0 -8 5 -11 10 -3 6
-1 10 4 10 6 0 11 -4 11 -10z m161 -17 c-8 -15 -10 -15 -11 -2 0 17 10 32 18
25 2 -3 -1 -13 -7 -23z m177 -2 c3 -8 -1 -12 -9 -9 -7 2 -15 10 -17 17 -3 8 1
12 9 9 7 -2 15 -10 17 -17z m-1767 -18 c-8 -15 -10 -15 -11 -2 0 17 10 32 18
25 2 -3 -1 -13 -7 -23z m46 -10 c-3 -10 -5 -4 -5 12 0 17 2 24 5 18 2 -7 2
-21 0 -30z m233 33 c0 -3 -4 -8 -10 -11 -5 -3 -10 -1 -10 4 0 6 5 11 10 11 6
0 10 -2 10 -4z m243 -16 c10 -10 7 -11 -13 -6 -14 4 -37 8 -52 10 -48 4 -42
15 6 12 26 -1 52 -8 59 -16z m1142 10 c-3 -5 -11 -10 -16 -10 -6 0 -7 5 -4 10
3 6 11 10 16 10 6 0 7 -4 4 -10z m1475 0 c0 -5 -4 -10 -10 -10 -5 0 -10 5 -10
10 0 6 5 10 10 10 6 0 10 -4 10 -10z m-2970 -10 c0 -5 -2 -10 -4 -10 -3 0 -8
5 -11 10 -3 6 -1 10 4 10 6 0 11 -4 11 -10z m1715 0 c3 -5 -1 -10 -10 -10 -9
0 -13 5 -10 10 3 6 8 10 10 10 2 0 7 -4 10 -10z m55 6 c0 -3 -4 -8 -10 -11 -5
-3 -10 -1 -10 4 0 6 5 11 10 11 6 0 10 -2 10 -4z m1070 -6 c0 -5 -2 -10 -4
-10 -3 0 -8 5 -11 10 -3 6 -1 10 4 10 6 0 11 -4 11 -10z m-75 -10 c3 -5 1 -10
-4 -10 -6 0 -11 5 -11 10 0 6 2 10 4 10 3 0 8 -4 11 -10z m-2805 -25 c-7 -8
-17 -15 -23 -15 -5 0 -2 9 8 20 21 23 35 19 15 -5z m1645 15 c3 -5 -1 -10 -10
-10 -9 0 -13 5 -10 10 3 6 8 10 10 10 2 0 7 -4 10 -10z m-298 -22 c-3 -8 -6
-5 -6 6 -1 11 2 17 5 13 3 -3 4 -12 1 -19z m183 12 c0 -5 -4 -10 -10 -10 -5 0
-10 5 -10 10 0 6 5 10 10 10 6 0 10 -4 10 -10z m-1768 -32 c-8 -8 -9 -4 -5 13
4 13 8 18 11 10 2 -7 -1 -18 -6 -23z m268 12 c-8 -5 -19 -10 -25 -10 -5 0 -3
5 5 10 8 5 20 10 25 10 6 0 3 -5 -5 -10z m2960 0 c0 -5 -5 -10 -11 -10 -5 0
-7 5 -4 10 3 6 8 10 11 10 2 0 4 -4 4 -10z m-2863 -22 c-3 -8 -6 -5 -6 6 -1
11 2 17 5 13 3 -3 4 -12 1 -19z m178 12 c3 -5 1 -10 -4 -10 -6 0 -11 5 -11 10
0 6 2 10 4 10 3 0 8 -4 11 -10z m2364 -21 c18 -11 31 -23 27 -26 -3 -3 -14 1
-24 10 -10 10 -24 17 -30 17 -6 0 -14 5 -17 10 -10 16 7 12 44 -11z m-2509 1
c0 -5 -4 -10 -10 -10 -5 0 -10 5 -10 10 0 6 5 10 10 10 6 0 10 -4 10 -10z
m1240 -5 c-7 -9 -15 -13 -17 -11 -7 7 7 26 19 26 6 0 6 -6 -2 -15z m200 11 c0
-3 -4 -8 -10 -11 -5 -3 -10 -1 -10 4 0 6 5 11 10 11 6 0 10 -2 10 -4z m-1783
-28 c-3 -8 -6 -5 -6 6 -1 11 2 17 5 13 3 -3 4 -12 1 -19z m1863 1 c0 -5 -4 -9
-10 -9 -5 0 -10 7 -10 16 0 8 5 12 10 9 6 -3 10 -10 10 -16z m-250 1 c0 -5 -7
-10 -16 -10 -8 0 -12 5 -9 10 3 6 10 10 16 10 5 0 9 -4 9 -10z m200 6 c0 -2
-7 -9 -15 -16 -13 -11 -14 -10 -9 4 5 14 24 23 24 12z m200 -6 c0 -5 -5 -10
-11 -10 -5 0 -7 5 -4 10 3 6 8 10 11 10 2 0 4 -4 4 -10z m-1953 -32 c-3 -7 -5
-2 -5 12 0 14 2 19 5 13 2 -7 2 -19 0 -25z m150 0 c-3 -7 -5 -2 -5 12 0 14 2
19 5 13 2 -7 2 -19 0 -25z m323 22 c0 -5 -4 -10 -10 -10 -5 0 -10 5 -10 10 0
6 5 10 10 10 6 0 10 -4 10 -10z m2195 -10 c-10 -11 -21 -17 -24 -14 -3 3 3 12
13 20 28 20 32 17 11 -6z m-2635 0 c0 -5 -5 -10 -11 -10 -5 0 -7 5 -4 10 3 6
8 10 11 10 2 0 4 -4 4 -10z m748 -15 c-3 -3 -9 2 -12 12 -6 14 -5 15 5 6 7 -7
10 -15 7 -18z m732 21 c0 -3 -4 -8 -10 -11 -5 -3 -10 -1 -10 4 0 6 5 11 10 11
6 0 10 -2 10 -4z m-1119 -33 c13 -16 12 -17 -3 -4 -10 7 -18 15 -18 17 0 8 8
3 21 -13z m122 -3 c3 -11 1 -20 -4 -20 -5 0 -9 9 -9 20 0 11 2 20 4 20 2 0 6
-9 9 -20z m1007 12 c0 -5 -7 -17 -15 -28 -14 -18 -14 -17 -4 9 12 27 19 34 19
19z m370 -2 c0 -5 -2 -10 -4 -10 -3 0 -8 5 -11 10 -3 6 -1 10 4 10 6 0 11 -4
11 -10z m-1693 -22 c-3 -8 -6 -5 -6 6 -1 11 2 17 5 13 3 -3 4 -12 1 -19z
m2643 -6 c0 -15 -2 -15 -10 -2 -13 20 -13 33 0 25 6 -3 10 -14 10 -23z m-2530
-1 c0 -11 -4 -23 -10 -26 -6 -4 -10 5 -10 19 0 14 5 26 10 26 6 0 10 -9 10
-19z m2247 -3 c-3 -8 -6 -5 -6 6 -1 11 2 17 5 13 3 -3 4 -12 1 -19z m-2471
-14 c-4 -9 -9 -15 -11 -12 -3 3 -3 13 1 22 4 9 9 15 11 12 3 -3 3 -13 -1 -22z
m2429 6 c3 -5 1 -10 -4 -10 -6 0 -11 5 -11 10 0 6 2 10 4 10 3 0 8 -4 11 -10z
m234 -32 c1 -5 -3 -8 -8 -8 -11 0 -21 37 -13 45 6 5 20 -19 21 -37z m-1285 21
c-3 -6 0 -16 7 -21 11 -8 10 -9 -4 -4 -11 3 -20 0 -23 -9 -4 -8 -10 -15 -15
-15 -5 0 0 14 13 30 21 29 36 42 22 19z m637 -26 c13 -16 12 -17 -3 -4 -10 7
-18 15 -18 17 0 8 8 3 21 -13z m1029 -9 c-77 -35 -116 -74 -75 -74 8 0 15 7
15 16 0 20 84 57 113 49 15 -4 18 -3 9 3 -10 7 -4 11 22 16 32 6 43 2 85 -28
67 -49 86 -91 86 -191 0 -75 -2 -83 -34 -130 -41 -60 -77 -92 -113 -100 -15
-4 -32 -13 -39 -21 -16 -19 -58 -18 -81 2 -10 10 -31 18 -47 19 -37 3 -87 38
-106 75 -8 16 -14 48 -14 72 l2 43 6 -52 c10 -79 28 -88 23 -11 -2 35 -8 67
-12 71 -9 10 20 129 42 172 28 54 90 95 143 95 27 0 24 -3 -25 -26z m-2574
-41 c-19 -35 -22 -7 -4 33 9 20 14 23 16 11 2 -8 -4 -28 -12 -44z m1058 42
c-4 -8 -10 -15 -15 -15 -4 0 -6 7 -3 15 4 8 10 15 15 15 4 0 6 -7 3 -15z
m-1204 -11 c0 -8 -4 -12 -10 -9 -5 3 -10 10 -10 16 0 5 5 9 10 9 6 0 10 -7 10
-16z m-185 -13 c3 -5 1 -12 -5 -16 -5 -3 -10 1 -10 9 0 18 6 21 15 7z m267
-13 c-7 -7 -12 -8 -12 -2 0 14 12 26 19 19 2 -3 -1 -11 -7 -17z m760 -20 c-6
-6 -7 0 -4 19 5 21 7 23 10 9 2 -10 0 -22 -6 -28z m1409 15 c13 -15 12 -15 -8
-4 -24 12 -29 21 -14 21 5 0 15 -7 22 -17z m-704 1 c-3 -3 -12 -4 -19 -1 -8 3
-5 6 6 6 11 1 17 -2 13 -5z m-507 -14 c0 -5 -4 -10 -10 -10 -5 0 -10 5 -10 10
0 6 5 10 10 10 6 0 10 -4 10 -10z m1290 -6 c0 -2 -11 -4 -25 -4 -14 0 -25 4
-25 9 0 4 11 6 25 3 14 -2 25 -6 25 -8z m-2673 -26 c-3 -7 -5 -2 -5 12 0 14 2
19 5 13 2 -7 2 -19 0 -25z m80 -5 c-3 -10 -5 -4 -5 12 0 17 2 24 5 18 2 -7 2
-21 0 -30z m314 10 c-12 -20 -14 -14 -5 12 4 9 9 14 11 11 3 -2 0 -13 -6 -23z
m1784 17 c3 -5 1 -10 -4 -10 -6 0 -11 5 -11 10 0 6 2 10 4 10 3 0 8 -4 11 -10z
m-945 -13 c0 -2 -10 -12 -22 -23 l-23 -19 19 23 c18 21 26 27 26 19z m360 -17
c0 -5 -2 -10 -4 -10 -3 0 -8 5 -11 10 -3 6 -1 10 4 10 6 0 11 -4 11 -10z m500
6 c0 -3 -4 -8 -10 -11 -5 -3 -10 -1 -10 4 0 6 5 11 10 11 6 0 10 -2 10 -4z
m583 -3 c-7 -2 -19 -2 -25 0 -7 3 -2 5 12 5 14 0 19 -2 13 -5z m-2616 -70 c-3
-10 -5 -2 -5 17 0 19 2 27 5 18 2 -10 2 -26 0 -35z m2013 43 c0 -3 -4 -8 -10
-11 -5 -3 -10 -1 -10 4 0 6 5 11 10 11 6 0 10 -2 10 -4z m340 -36 c0 -5 -2
-10 -4 -10 -3 0 -8 5 -11 10 -3 6 -1 10 4 10 6 0 11 -4 11 -10z m-1907 -27
c-7 -2 -19 -2 -25 0 -7 3 -2 5 12 5 14 0 19 -2 13 -5z m427 -22 c0 7 9 4 20
-6 26 -23 15 -30 -59 -38 -35 -4 -65 -15 -87 -32 -45 -35 -44 -15 2 25 20 17
34 34 30 37 -3 3 -22 -11 -43 -32 -21 -21 -40 -37 -43 -36 -9 5 -29 -64 -24
-84 16 -62 53 -85 144 -89 24 -1 36 -7 38 -18 3 -13 -4 -16 -35 -14 -81 6
-163 73 -163 134 0 35 36 98 71 123 54 38 100 50 127 33 15 -10 22 -11 22 -3z
m305 -27 c32 -19 61 -34 66 -34 5 0 9 -5 9 -11 0 -6 18 -29 40 -52 115 -122
129 -138 111 -132 -11 3 -22 1 -26 -5 -10 -16 -30 -12 -56 13 -47 45 -109 115
-109 122 0 4 -10 20 -21 37 -15 20 -28 28 -40 25 -11 -3 -17 -1 -14 3 8 14
-55 30 -133 34 -82 4 -111 16 -39 16 25 0 48 4 51 9 3 5 28 9 55 9 39 1 61 -7
106 -34z m525 22 c0 -8 -4 -18 -10 -21 -5 -3 -10 3 -10 14 0 12 5 21 10 21 6
0 10 -6 10 -14z m-1950 -17 c0 -6 -4 -7 -10 -4 -5 3 -10 11 -10 16 0 6 5 7 10
4 6 -3 10 -11 10 -16z m760 11 c0 -5 -2 -10 -4 -10 -3 0 -8 5 -11 10 -3 6 -1
10 4 10 6 0 11 -4 11 -10z m1110 6 c0 -3 -4 -8 -10 -11 -5 -3 -10 -1 -10 4 0
6 5 11 10 11 6 0 10 -2 10 -4z m-1206 -22 c3 -8 2 -12 -4 -9 -6 3 -10 10 -10
16 0 14 7 11 14 -7z m-357 -31 c-3 -10 -5 -4 -5 12 0 17 2 24 5 18 2 -7 2 -21
0 -30z m100 5 c-3 -8 -6 -5 -6 6 -1 11 2 17 5 13 3 -3 4 -12 1 -19z m363 2 c0
-5 -2 -10 -4 -10 -3 0 -8 5 -11 10 -3 6 -1 10 4 10 6 0 11 -4 11 -10z m377
-10 c-31 -10 -73 -30 -92 -44 -29 -23 -35 -33 -35 -66 0 -37 19 -67 28 -42 2
6 10 8 18 5 10 -4 14 2 14 21 0 14 2 26 4 26 2 0 13 3 23 7 17 7 17 6 1 -11
-32 -31 -16 -74 18 -48 5 4 1 -1 -10 -11 -15 -14 -31 -17 -67 -14 -89 9 -118
48 -82 109 21 36 88 83 77 54 -5 -12 -2 -15 10 -10 9 3 16 12 16 20 0 12 20
16 115 22 11 0 -6 -7 -38 -18z m176 13 c-7 -2 -19 -2 -25 0 -7 3 -2 5 12 5 14
0 19 -2 13 -5z m-1212 -20 c13 -16 12 -17 -3 -4 -17 13 -22 21 -14 21 2 0 10
-8 17 -17z m-205 -38 c-50 -38 -84 -48 -47 -14 23 22 70 49 84 49 5 0 -12 -16
-37 -35z m1046 -18 c-6 -7 -12 -25 -15 -42 -3 -24 -4 -22 -6 13 0 23 3 42 9
42 5 0 7 8 4 18 -5 15 -4 15 6 -1 8 -12 8 -22 2 -30z m-883 27 c38 -8 104 -85
107 -126 1 -15 -2 -25 -7 -22 -5 3 -9 13 -9 23 0 10 -8 25 -17 32 -10 7 -15 9
-11 5 9 -10 -42 -40 -51 -30 -3 4 -1 9 6 11 9 3 9 12 2 29 -12 32 -11 37 1 29
6 -3 10 0 10 8 0 9 -18 19 -44 26 -58 14 -68 13 -31 -4 39 -17 21 -19 -28 -2
-20 8 -34 17 -30 20 8 9 61 9 102 1z m144 -14 c3 -11 2 -22 -3 -25 -4 -3 -10
6 -12 20 -6 30 7 34 15 5z m88 -13 c-8 -8 -11 -7 -11 4 0 20 13 34 18 19 3 -7
-1 -17 -7 -23z m-160 6 c13 -16 12 -17 -3 -4 -17 13 -22 21 -14 21 2 0 10 -8
17 -17z m1519 13 c0 -3 -4 -8 -10 -11 -5 -3 -10 -1 -10 4 0 6 5 11 10 11 6 0
10 -2 10 -4z m-1398 -28 c-7 -7 -12 -8 -12 -2 0 6 3 14 7 17 3 4 9 5 12 2 2
-3 -1 -11 -7 -17z m65 0 c-3 -8 -6 -5 -6 6 -1 11 2 17 5 13 3 -3 4 -12 1 -19z
m113 12 c0 -5 -5 -10 -11 -10 -5 0 -7 5 -4 10 3 6 8 10 11 10 2 0 4 -4 4 -10z
m706 -9 c17 -10 38 -34 47 -54 15 -30 15 -38 3 -61 -11 -22 -15 -24 -25 -12
-9 10 -8 16 4 26 8 7 15 19 15 27 0 14 -39 34 -52 26 -4 -2 -5 2 -2 10 5 15
-20 47 -37 47 -15 0 -50 -40 -44 -50 3 -5 1 -11 -5 -15 -20 -12 -10 35 12 55
27 25 44 25 84 1z m501 -23 c-3 -8 -6 -5 -6 6 -1 11 2 17 5 13 3 -3 4 -12 1
-19z m533 12 c0 -5 -5 -10 -11 -10 -5 0 -7 5 -4 10 3 6 8 10 11 10 2 0 4 -4 4
-10z m-1880 -10 c0 -5 -9 -10 -21 -10 -11 0 -17 5 -14 10 3 6 13 10 21 10 8 0
14 -4 14 -10z m123 -6 c-3 -8 -12 -13 -20 -10 -8 3 -20 7 -26 7 -7 1 2 5 18 9
17 4 31 8 32 9 1 0 0 -6 -4 -15z m2432 6 c19 -7 24 -7 19 1 -13 22 49 -2 65
-24 9 -12 13 -23 11 -23 -3 -1 4 -11 14 -23 11 -12 15 -21 11 -21 -5 0 0 -6
10 -14 11 -8 23 -12 26 -10 4 2 4 -18 1 -44 -3 -29 -16 -64 -35 -92 -23 -34
-25 -40 -9 -26 12 10 24 27 27 37 4 11 10 19 15 19 12 0 2 -27 -21 -61 -10
-14 -16 -29 -12 -32 3 -4 -2 -9 -11 -13 -9 -3 -16 -12 -16 -20 0 -35 -143 -28
-197 9 -18 12 -33 25 -33 30 0 4 -5 7 -10 7 -12 0 7 -41 24 -52 8 -6 8 -8 0
-8 -13 0 -44 43 -44 60 0 6 -12 28 -27 51 -25 38 -26 42 -13 96 9 41 22 66 49
93 20 20 29 27 20 16 -30 -40 -31 -51 0 -16 17 19 31 38 31 42 0 3 9 4 19 1
11 -3 28 0 38 6 15 9 13 10 -12 5 -23 -4 -26 -3 -15 5 19 13 41 14 75 1z
m-2815 -10 c0 -5 -4 -10 -10 -10 -5 0 -10 5 -10 10 0 6 5 10 10 10 6 0 10 -4
10 -10z m150 -16 c0 -8 -4 -12 -10 -9 -5 3 -10 13 -10 21 0 8 5 12 10 9 6 -3
10 -13 10 -21z m2233 0 c-4 -12 -8 -13 -14 -3 -9 15 -2 32 11 24 5 -3 6 -13 3
-21z m-628 -3 c-3 -6 -11 -11 -17 -11 -6 0 -6 6 2 15 14 17 26 13 15 -4z m592
-3 c-3 -8 -6 -5 -6 6 -1 11 2 17 5 13 3 -3 4 -12 1 -19z m-2341 -16 c-18 -16
-18 -16 -6 6 6 13 14 21 18 18 3 -4 -2 -14 -12 -24z m209 13 c20 -1 84 -38 89
-51 3 -7 0 -16 -7 -20 -7 -4 -9 -4 -5 1 7 7 -51 55 -67 55 -3 0 -18 -11 -32
-25 -15 -13 -29 -22 -33 -19 -3 3 2 11 11 17 9 7 15 22 14 34 -1 14 3 19 9 15
6 -3 16 -7 21 -7z m446 -4 c-6 -10 -8 -21 -6 -25 3 -3 0 -2 -7 3 -8 8 -8 14 2
26 17 21 23 19 11 -4z m-327 -5 c19 -8 37 -20 42 -27 7 -12 5 -12 -9 -1 -9 8
-36 20 -59 27 -24 8 -35 14 -25 14 10 1 33 -5 51 -13z m923 -34 c-9 -10 -17
-24 -17 -30 0 -7 -7 -12 -15 -12 -20 0 -19 8 7 46 14 21 26 30 32 24 6 -6 3
-17 -7 -28z m933 34 c0 -3 -4 -8 -10 -11 -5 -3 -10 -1 -10 4 0 6 5 11 10 11 6
0 10 -2 10 -4z m781 -13 c12 -14 12 -15 0 -9 -10 7 -12 3 -6 -15 l7 -24 -23
23 c-21 19 -22 24 -9 32 8 5 16 10 16 10 1 0 8 -8 15 -17z m-2701 -56 c0 -6
-11 0 -25 13 -14 13 -25 28 -25 33 0 6 11 0 25 -13 14 -13 25 -28 25 -33z
m929 17 c-15 -18 -22 -13 -13 10 3 9 10 13 16 10 5 -3 4 -12 -3 -20z m125 11
c3 -8 1 -15 -4 -15 -6 0 -10 7 -10 15 0 8 2 15 4 15 2 0 6 -7 10 -15z m197
-21 c19 -20 28 -35 19 -34 -31 5 -42 0 -36 -15 6 -17 -5 -20 -20 -5 -8 8 -8
90 0 90 1 0 18 -16 37 -36z m-1411 22 c0 -3 -4 -8 -10 -11 -5 -3 -10 -1 -10 4
0 6 5 11 10 11 6 0 10 -2 10 -4z m126 -27 c19 -22 19 -22 -3 -8 -13 8 -23 17
-23 21 0 12 6 9 26 -13z m159 -5 c9 -9 13 -19 10 -22 -3 -3 -15 4 -27 16 -13
12 -17 22 -11 22 6 0 19 -7 28 -16z m-298 -36 c-3 -7 -5 -2 -5 12 0 14 2 19 5
13 2 -7 2 -19 0 -25z m194 -4 c14 -37 6 -39 -15 -4 -10 17 -13 30 -6 30 6 0
15 -12 21 -26z m1319 -9 c-25 -27 -51 -35 -30 -10 8 9 9 15 2 15 -6 0 -14 -4
-17 -10 -3 -5 -15 -10 -25 -10 -14 0 -18 -5 -13 -17 4 -11 3 -14 -6 -9 -7 4
-11 12 -9 18 4 11 110 58 117 51 3 -1 -6 -14 -19 -28z m1410 -23 c0 -47 -22
-92 -66 -132 -21 -19 -31 -26 -21 -14 9 11 14 23 11 27 -3 3 6 13 20 22 31 21
50 75 42 123 -5 27 -4 33 3 22 6 -8 11 -30 11 -48z m-2330 27 c0 -5 -4 -9 -10
-9 -5 0 -10 7 -10 16 0 8 5 12 10 9 6 -3 10 -10 10 -16z m248 -25 c-4 -3 -12
5 -18 18 -12 22 -12 22 6 6 10 -10 15 -20 12 -24z m279 14 c-3 -8 -6 -5 -6 6
-1 11 2 17 5 13 3 -3 4 -12 1 -19z m97 -13 c-16 -13 -31 -21 -33 -19 -8 7 43
52 53 46 4 -2 -5 -15 -20 -27z m-429 15 c4 -6 -5 -10 -20 -10 -15 0 -24 4 -20
10 3 6 12 10 20 10 8 0 17 -4 20 -10z m175 0 c0 -5 -5 -10 -11 -10 -5 0 -7 5
-4 10 3 6 8 10 11 10 2 0 4 -4 4 -10z m1200 0 c0 -5 -5 -10 -11 -10 -5 0 -7 5
-4 10 3 6 8 10 11 10 2 0 4 -4 4 -10z m-1710 -20 c0 -5 -5 -10 -11 -10 -5 0
-7 5 -4 10 3 6 8 10 11 10 2 0 4 -4 4 -10z m447 -15 c0 -8 -4 -12 -9 -9 -5 3
-6 10 -3 15 9 13 12 11 12 -6z m217 -34 c-4 -20 -6 -44 -6 -55 1 -10 -9 -39
-22 -65 -13 -25 -21 -51 -19 -58 3 -7 -8 -29 -24 -50 -17 -23 -20 -32 -9 -23
18 14 18 13 11 -10 -4 -14 -10 -27 -14 -30 -10 -8 -13 -38 -20 -170 -4 -69 -3
-132 1 -140 5 -9 8 -1 8 23 0 20 5 37 11 37 6 0 9 -20 5 -56 -5 -59 -3 -59 42
-16 8 7 18 10 23 7 9 -6 13 18 9 68 -1 24 6 31 31 29 3 0 11 8 18 20 7 11 8
17 2 13 -15 -9 -14 28 2 44 10 11 8 13 -10 8 -26 -6 -33 8 -33 68 0 54 16 67
24 20 4 -19 11 -35 16 -35 4 0 6 9 3 20 -3 12 0 20 7 20 7 0 10 -12 8 -32 -2
-19 2 -33 10 -35 16 -6 16 49 0 65 -7 7 -12 31 -11 54 0 26 -1 32 -4 16 -2
-16 -9 -28 -14 -28 -12 0 -11 37 2 62 9 18 9 20 -4 15 -11 -4 -14 -2 -10 9 8
20 21 17 28 -7 10 -31 27 -9 27 35 0 24 5 36 14 36 8 0 14 7 14 16 0 23 26 45
44 38 18 -7 21 -20 6 -29 -5 -3 -10 -1 -10 4 0 6 -4 11 -9 11 -7 0 -31 -94
-31 -122 0 -19 21 -6 31 19 8 22 12 24 19 13 5 -8 7 -23 4 -32 -9 -29 4 -21
21 13 14 26 19 28 32 18 12 -11 18 -9 34 11 11 14 26 40 34 59 9 19 18 32 20
29 12 -12 -31 -86 -76 -129 -27 -26 -49 -53 -49 -60 0 -8 7 -6 20 6 18 16 20
16 20 2 0 -10 -23 -39 -52 -67 -28 -27 -48 -53 -45 -57 4 -4 15 4 24 16 11 16
18 19 23 11 5 -8 14 -3 28 15 11 14 22 31 25 38 3 9 8 9 20 -1 13 -11 17 -10
28 10 11 21 11 22 -4 9 -23 -18 -22 2 1 22 10 10 22 14 27 10 4 -5 5 -3 2 4
-4 6 -3 13 2 15 5 1 26 23 47 48 20 25 35 37 31 28 -9 -27 -106 -169 -136
-201 -14 -15 -26 -34 -26 -42 0 -7 -43 -62 -95 -121 -121 -137 -128 -144 -142
-144 -6 0 -1 11 12 25 13 14 21 25 19 25 -3 0 -18 -14 -35 -31 l-29 -31 62 5
c35 2 60 1 57 -4 -6 -10 49 -2 81 11 11 4 28 11 37 13 11 4 15 13 11 26 -3 12
4 33 17 51 26 36 40 32 16 -4 -9 -14 -16 -31 -15 -38 0 -8 3 -7 7 3 13 29 51
71 61 65 9 -6 21 14 27 44 2 8 12 22 23 32 21 16 31 85 11 73 -5 -3 -10 -17
-10 -31 0 -13 -4 -24 -10 -24 -5 0 -10 12 -10 28 0 19 8 32 29 44 29 16 29 16
35 -8 4 -14 11 -22 16 -19 6 3 10 0 10 -7 1 -7 7 -2 15 12 8 14 12 33 9 42 -4
12 1 16 16 15 14 -1 23 -12 30 -37 9 -32 8 -37 -18 -55 -15 -11 -46 -38 -69
-61 -24 -22 -45 -39 -47 -37 -2 2 -7 0 -11 -6 -16 -26 34 -7 102 39 40 28 78
50 83 50 6 0 15 9 22 20 7 11 19 20 27 20 8 0 28 12 43 27 37 36 36 17 -3 -30
-17 -20 -39 -37 -50 -37 -10 0 -19 -3 -19 -8 0 -4 -23 -25 -51 -47 -29 -22
-74 -59 -102 -83 -44 -39 -47 -44 -28 -49 27 -7 12 -28 -25 -37 -14 -4 -22
-11 -19 -16 4 -6 0 -12 -7 -14 -72 -19 -126 -41 -121 -49 6 -10 -15 -27 -34
-27 -7 0 -13 5 -13 10 0 6 7 10 15 10 8 0 15 5 15 11 0 6 -9 9 -20 6 -11 -3
-18 -1 -14 4 9 14 -29 10 -50 -6 -11 -8 -27 -15 -35 -15 -21 0 -80 -60 -75
-75 3 -7 -12 -29 -33 -50 -21 -20 -38 -42 -38 -48 0 -7 -8 -11 -17 -9 -9 1
-29 -9 -45 -24 -15 -14 -55 -46 -88 -71 -58 -43 -77 -45 -56 -4 6 11 11 36 11
55 0 22 5 36 13 36 9 0 9 2 1 8 -7 4 -14 18 -17 32 -4 22 -4 21 -6 -7 -2 -46
-23 -133 -33 -133 -4 0 -8 -6 -8 -14 0 -8 -3 -16 -7 -18 -8 -3 -52 -66 -72
-103 -9 -18 -10 -17 -11 10 0 21 -3 26 -9 16 -12 -19 -25 59 -16 99 4 17 2 30
-3 30 -17 0 -25 70 -22 188 3 117 21 91 31 -45 7 -102 7 -101 3 32 -5 146 2
163 31 74 l14 -44 -5 45 c-4 40 -3 43 9 28 8 -10 19 -18 26 -18 6 0 16 -10 21
-22 5 -13 17 -33 26 -45 10 -14 12 -23 5 -23 -6 0 -11 -8 -10 -17 0 -11 3 -13
6 -5 2 6 9 9 14 6 13 -8 39 15 39 33 0 8 9 26 20 40 22 29 26 44 8 40 -14 -3
-11 113 3 127 6 6 9 4 9 -7 0 -9 5 -17 10 -17 6 0 10 -7 10 -15 0 -8 -3 -15
-7 -15 -5 0 -8 -14 -9 -31 -1 -38 11 -26 25 24 9 34 7 42 -10 60 -11 12 -17
27 -14 34 14 36 15 45 0 21 -8 -15 -24 -32 -35 -38 -27 -14 -83 -12 -105 4
-11 8 -24 12 -30 10 -6 -3 -21 16 -34 41 -12 25 -31 50 -42 56 -11 6 -18 16
-16 22 2 7 -2 18 -9 25 -22 22 3 51 42 49 18 -2 36 -6 40 -10 6 -6 13 -107 7
-107 -1 0 -9 7 -17 16 -20 19 -20 6 -1 -20 7 -10 18 -15 24 -11 6 3 11 0 11
-7 0 -8 7 -23 16 -34 15 -19 15 -19 6 1 -13 28 -24 90 -15 81 5 -4 14 -22 20
-39 l13 -32 -3 47 c-2 50 7 56 16 11 8 -38 27 -87 32 -81 2 2 -2 25 -10 51 -8
28 -10 47 -4 47 5 0 13 -8 16 -17 7 -19 33 -49 33 -38 0 3 -7 20 -16 36 -23
45 -7 50 27 9 15 -19 29 -30 29 -25 0 17 -57 75 -74 75 -9 0 -16 4 -16 9 0 5
6 8 13 7 35 -6 54 -20 76 -56 30 -49 42 -45 13 5 -25 40 -20 45 14 13 18 -18
24 -34 24 -68 0 -33 3 -41 10 -30 5 8 10 11 10 5 0 -5 5 -3 10 5 17 26 11 62
-15 96 -14 18 -25 37 -25 43 0 6 -13 17 -30 26 -16 9 -30 20 -30 25 0 15 11
12 55 -11 27 -15 35 -17 27 -6 -8 9 -9 16 -3 19 6 2 0 26 -13 58 -36 85 -45
119 -35 126 5 3 9 -4 9 -16 0 -13 4 -19 12 -14 6 4 8 3 4 -4 -8 -13 8 -57 32
-87 18 -22 18 -22 17 24 0 25 -3 48 -6 51 -4 3 -10 32 -14 65 -8 62 2 73 12
13 6 -39 5 -39 20 -30 9 6 9 19 -2 56 -19 61 -19 67 0 60 9 -4 15 -19 15 -40
0 -36 14 -45 25 -17 3 10 9 46 12 80 3 35 9 63 14 63 4 0 12 12 17 28 l10 27
1 -34 c1 -33 2 -34 16 -15 8 10 15 27 15 37 0 11 5 15 11 11 7 -4 8 -20 3 -43z
m-97 25 c-3 -7 -9 -34 -12 -60 -4 -25 -12 -46 -17 -46 -6 0 -8 6 -5 14 3 7 9
34 12 60 4 25 12 46 17 46 6 0 8 -6 5 -14z m-171 -23 c-7 -7 -26 7 -26 19 0 6
6 6 15 -2 9 -7 13 -15 11 -17z m-366 3 c0 -3 -4 -8 -10 -11 -5 -3 -10 -1 -10
4 0 6 5 11 10 11 6 0 10 -2 10 -4z m300 -12 c0 -2 -7 -4 -15 -4 -8 0 -15 4
-15 10 0 5 7 7 15 4 8 -4 15 -8 15 -10z m730 6 c0 -5 -2 -10 -4 -10 -3 0 -8 5
-11 10 -3 6 -1 10 4 10 6 0 11 -4 11 -10z m-1760 -9 c0 -5 -7 -11 -14 -14 -10
-4 -13 -1 -9 9 6 15 23 19 23 5z m810 -1 c0 -5 -2 -10 -4 -10 -3 0 -8 5 -11
10 -3 6 -1 10 4 10 6 0 11 -4 11 -10z m-123 -15 c14 -14 14 -18 -1 -34 -9 -10
-16 -23 -16 -29 0 -7 -4 -12 -10 -12 -5 0 -10 -5 -10 -11 0 -6 -10 -25 -22
-42 -14 -20 -16 -27 -6 -19 33 26 26 -6 -9 -44 -43 -47 -97 -114 -108 -134 -8
-14 41 38 132 140 22 25 38 51 35 59 -3 8 1 12 9 9 8 -3 13 -14 12 -24 -1 -18
-1 -18 10 1 7 10 27 33 45 49 17 16 32 36 32 43 0 7 5 13 10 13 16 0 -16 -56
-57 -101 -30 -33 -34 -42 -22 -51 11 -8 11 -9 -3 -4 -12 3 -23 -3 -34 -19 -9
-14 -21 -25 -26 -25 -5 0 1 15 13 33 18 26 13 23 -22 -13 -48 -49 -125 -150
-114 -150 11 0 76 74 93 105 8 16 17 24 19 18 3 -7 -3 -23 -11 -35 -19 -27
-20 -38 -3 -34 6 1 9 1 5 -1 -5 -3 -8 -10 -8 -17 0 -17 -45 -58 -54 -49 -4 4
-4 -1 0 -11 6 -15 4 -17 -7 -11 -8 4 -11 5 -8 1 6 -7 -5 -22 -81 -110 -19 -22
-26 -33 -14 -25 11 7 44 41 71 74 28 33 73 84 100 113 28 29 46 55 41 58 -4 3
-8 15 -7 27 l0 22 9 -22 c5 -13 12 -23 14 -23 3 0 25 14 50 31 25 17 50 27 56
24 5 -3 10 -2 10 3 0 5 12 14 28 21 l27 11 -24 -21 c-22 -18 -24 -23 -11 -42
12 -20 12 -21 -3 -8 -14 11 -20 11 -34 0 -9 -8 -18 -13 -20 -11 -1 1 -3 -1 -4
-5 -1 -15 -32 -42 -40 -37 -12 7 -111 -78 -152 -130 -18 -22 -27 -37 -21 -33
8 4 11 -2 10 -18 0 -14 -5 -24 -11 -24 -24 3 -36 -2 -30 -11 4 -6 1 -9 -5 -8
-7 2 -32 -26 -56 -62 -24 -36 -50 -73 -59 -82 -8 -10 -15 -22 -15 -26 0 -4 -9
-8 -19 -8 -19 0 -19 1 0 36 11 19 33 56 49 82 18 30 25 48 17 51 -7 2 5 29 30
70 23 37 39 67 35 67 -15 -1 -102 -154 -91 -161 8 -4 1 -21 -18 -50 -50 -74
-54 -85 -42 -113 11 -22 8 -31 -17 -67 -15 -22 -29 -51 -29 -62 -1 -12 -9 -39
-18 -59 -9 -20 -14 -45 -10 -54 4 -11 3 -15 -5 -10 -15 9 -26 -12 -13 -27 6
-8 6 -18 1 -27 -6 -8 -10 -13 -11 -10 -6 34 -4 61 7 89 8 19 12 36 10 39 -3 2
1 20 9 38 8 19 10 34 5 34 -5 0 -14 -17 -21 -37 -7 -21 -14 -32 -17 -25 -2 7
1 26 7 42 13 38 4 40 -10 3 -7 -17 -13 -23 -16 -15 -3 7 2 31 11 54 9 22 15
42 13 45 -3 2 -13 -16 -23 -41 -11 -25 -23 -46 -28 -46 -4 0 -5 8 -1 18 4 9
11 31 15 47 16 64 43 150 49 160 4 6 13 30 21 55 7 25 15 39 17 33 8 -22 23
-14 23 11 0 13 7 29 15 36 17 14 20 30 5 30 -5 0 -16 -12 -24 -27 -31 -58 -14
1 20 68 19 39 33 73 30 76 -12 13 29 82 83 137 31 34 62 70 68 81 7 11 14 17
18 14 3 -4 -14 -30 -37 -59 -67 -83 -118 -154 -118 -165 0 -5 19 18 42 53 62
94 58 66 -5 -35 -30 -48 -60 -99 -66 -113 -16 -35 0 -12 74 110 82 135 87 142
102 132 10 -6 4 -18 -20 -44 -28 -31 -71 -104 -130 -222 -10 -22 -26 -47 -34
-55 -13 -13 -13 -16 -2 -20 8 -2 17 -8 20 -13 3 -5 9 -2 12 7 4 9 3 13 -3 10
-13 -8 -13 1 1 26 5 11 15 16 21 13 7 -4 8 -3 4 4 -9 15 11 52 115 210 81 122
117 186 123 219 1 7 15 24 30 38 23 21 26 28 16 40 -16 20 -3 19 17 0z m769
-12 c-10 -10 -19 5 -10 18 6 11 8 11 12 0 2 -7 1 -15 -2 -18z m-66 8 c0 -6 -4
-13 -10 -16 -5 -3 -10 1 -10 9 0 9 5 16 10 16 6 0 10 -4 10 -9z m830 -1 c0 -5
-4 -10 -10 -10 -5 0 -10 5 -10 10 0 6 5 10 10 10 6 0 10 -4 10 -10z m-2200
-10 c0 -5 -2 -10 -4 -10 -3 0 -8 5 -11 10 -3 6 -1 10 4 10 6 0 11 -4 11 -10z
m227 -22 c-3 -7 -5 -2 -5 12 0 14 2 19 5 13 2 -7 2 -19 0 -25z m583 12 c0 -5
-4 -10 -10 -10 -5 0 -10 5 -10 10 0 6 5 10 10 10 6 0 10 -4 10 -10z m1697 -15
c58 -38 79 -144 44 -219 -11 -23 -28 -62 -39 -89 -25 -56 -50 -69 -129 -63
-43 3 -61 9 -82 30 -24 25 -26 33 -25 106 1 44 -3 77 -7 74 -5 -3 -9 11 -9 30
0 23 7 42 22 56 28 25 36 18 14 -14 -9 -14 -16 -31 -16 -38 0 -6 14 10 31 37
38 59 56 74 90 75 31 0 106 -52 119 -83 6 -15 9 -17 9 -6 1 21 -36 63 -74 82
-16 9 -24 16 -17 17 6 0 12 4 12 9 0 5 -6 12 -12 14 -7 2 0 3 16 1 17 -3 40
-11 53 -19z m-130 9 c-3 -3 -12 -4 -19 -1 -8 3 -5 6 6 6 11 1 17 -2 13 -5z
m-2357 -37 c0 -18 -2 -19 -10 -7 -13 20 -13 43 0 35 6 -3 10 -16 10 -28z m285
-24 c-4 -32 -11 -62 -15 -67 -5 -5 -6 -15 -3 -24 4 -9 2 -13 -4 -9 -12 7 -25
-65 -24 -124 1 -20 -7 -56 -17 -80 -11 -24 -22 -64 -25 -89 -4 -30 -3 -38 3
-25 5 11 9 29 9 40 1 11 14 54 30 95 22 55 27 78 19 88 -6 7 -8 15 -4 19 3 3
6 1 6 -5 0 -31 19 -6 35 46 20 65 34 86 32 48 -1 -14 -6 -26 -11 -26 -5 0 -7
-3 -4 -6 6 -5 -43 -148 -64 -188 -6 -11 -12 -30 -14 -41 -1 -11 -5 -33 -9 -50
-20 -80 41 67 69 168 9 32 21 55 25 52 11 -6 -23 -121 -55 -184 -13 -27 -24
-54 -24 -60 0 -6 -4 -11 -8 -11 -8 0 -39 -101 -68 -225 -9 -38 -21 -74 -27
-80 -6 -7 -7 0 -2 20 4 17 13 92 20 167 7 75 16 142 20 149 6 8 4 10 -5 4 -13
-8 -12 10 5 85 5 24 5 24 -4 3 -18 -40 -19 -25 -3 40 18 72 20 76 32 57 8 -12
10 -10 11 10 5 95 9 124 19 134 7 7 10 6 10 -4 0 -13 2 -13 10 0 5 8 10 27 10
41 0 27 19 89 27 89 2 0 1 -26 -2 -57z m100 5 c-16 -63 -46 -150 -51 -146 -1
2 2 21 7 43 6 22 10 49 10 60 -2 32 21 95 34 95 10 0 9 -12 0 -52z m1005 48
c0 -3 -4 -8 -10 -11 -5 -3 -10 -1 -10 4 0 6 5 11 10 11 6 0 10 -2 10 -4z m160
-5 c0 -12 -20 -25 -27 -18 -7 7 6 27 18 27 5 0 9 -4 9 -9z m26 -28 c-10 -10
-19 5 -10 18 6 11 8 11 12 0 2 -7 1 -15 -2 -18z m26 -26 c-11 -24 -25 -48 -31
-51 -16 -10 -14 -4 16 53 32 62 43 60 15 -2z m-1662 33 c0 -5 -2 -10 -4 -10
-3 0 -8 5 -11 10 -3 6 -1 10 4 10 6 0 11 -4 11 -10z m827 -22 c-3 -8 -6 -5 -6
6 -1 11 2 17 5 13 3 -3 4 -12 1 -19z m663 12 c0 -5 -2 -10 -4 -10 -3 0 -8 5
-11 10 -3 6 -1 10 4 10 6 0 11 -4 11 -10z m-860 -18 c0 -10 -83 -112 -91 -112
-17 0 -9 18 31 63 40 45 51 65 28 51 -7 -4 -8 -3 -4 4 6 11 36 6 36 -6z m254
-18 c4 -19 10 -43 13 -52 4 -12 3 -14 -5 -7 -14 12 -33 95 -22 95 4 0 11 -16
14 -36z m226 -7 c0 -5 -4 -5 -10 -2 -5 3 -10 14 -10 23 0 15 2 15 10 2 5 -8
10 -19 10 -23z m60 23 c0 -5 -2 -10 -4 -10 -3 0 -8 5 -11 10 -3 6 -1 10 4 10
6 0 11 -4 11 -10z m-150 -45 c0 -5 -5 -3 -10 5 -5 8 -10 20 -10 25 0 6 5 3 10
-5 5 -8 10 -19 10 -25z m676 -34 c-27 -53 -68 -91 -75 -69 -2 6 10 23 26 37
17 15 39 44 48 66 9 22 19 35 22 28 2 -6 -7 -34 -21 -62z m184 65 c0 -3 -4 -8
-10 -11 -5 -3 -10 -1 -10 4 0 6 5 11 10 11 6 0 10 -2 10 -4z m50 -6 c0 -5 -5
-10 -11 -10 -5 0 -7 5 -4 10 3 6 8 10 11 10 2 0 4 -4 4 -10z m-354 -25 c-3
-28 -16 -47 -16 -22 0 16 10 47 15 47 2 0 2 -11 1 -25z m-1326 11 c0 -2 -5
-28 -11 -57 -14 -66 -15 -76 -32 -220 -8 -63 -19 -124 -25 -135 -5 -10 -12
-48 -15 -84 -6 -65 -6 -65 13 25 11 49 25 94 31 100 13 12 6 -43 -21 -160 -25
-108 -31 -155 -19 -155 5 0 9 -23 9 -52 0 -70 -9 -56 -25 39 -7 43 -14 67 -15
53 -1 -14 -5 -34 -10 -45 -7 -16 -9 -14 -9 15 0 19 -5 85 -11 145 -5 61 -8
133 -6 160 3 28 6 59 7 70 1 11 7 -2 14 -30 12 -47 13 -42 14 103 1 94 5 152
11 152 6 0 10 -24 10 -54 0 -49 2 -54 20 -49 19 5 25 20 21 51 -1 6 3 12 10
12 9 0 9 3 0 14 -7 9 -8 17 -2 20 5 3 12 24 16 46 4 22 11 40 16 40 5 0 9 -2
9 -4z m750 -56 c0 -42 -49 -49 -50 -7 0 14 19 7 24 -10 3 -10 4 1 2 25 -4 36
-2 41 10 31 8 -6 14 -24 14 -39z m45 40 c3 -5 1 -10 -4 -10 -6 0 -11 5 -11 10
0 6 2 10 4 10 3 0 8 -4 11 -10z m55 -6 c0 -8 -4 -12 -10 -9 -5 3 -10 10 -10
16 0 5 5 9 10 9 6 0 10 -7 10 -16z m-340 -24 c0 -5 -2 -10 -4 -10 -3 0 -8 5
-11 10 -3 6 -1 10 4 10 6 0 11 -4 11 -10z m1410 0 c0 -5 -4 -10 -10 -10 -5 0
-10 5 -10 10 0 6 5 10 10 10 6 0 10 -4 10 -10z m-1903 -22 c-3 -8 -6 -5 -6 6
-1 11 2 17 5 13 3 -3 4 -12 1 -19z m518 -8 c3 -5 1 -10 -4 -10 -6 0 -11 5 -11
10 0 6 2 10 4 10 3 0 8 -4 11 -10z m285 -15 c0 -8 -4 -15 -10 -15 -5 0 -10 7
-10 15 0 8 5 15 10 15 6 0 10 -7 10 -15z m57 -7 c-3 -8 -6 -5 -6 6 -1 11 2 17
5 13 3 -3 4 -12 1 -19z m1872 3 c40 -21 68 -68 57 -96 -3 -9 -2 -13 4 -10 6 4
10 -9 10 -30 0 -22 -4 -34 -10 -30 -5 3 -11 -2 -12 -12 0 -10 -2 -22 -3 -28
-2 -5 -3 -16 -4 -23 0 -7 -19 -32 -41 -56 -30 -32 -56 -48 -109 -66 -62 -21
-73 -23 -111 -11 -24 7 -63 31 -88 55 -41 39 -44 46 -44 92 -1 152 214 284
351 215z m-2109 -12 c0 -6 -4 -7 -10 -4 -5 3 -10 11 -10 16 0 6 5 7 10 4 6 -3
10 -11 10 -16z m1050 17 c0 -7 -52 -96 -59 -100 -11 -7 -28 7 -35 30 -4 14 -2
23 7 27 8 3 14 0 14 -6 -1 -48 5 -48 28 1 13 28 29 52 35 52 5 0 10 -2 10 -4z
m-1213 -28 c-3 -8 -6 -5 -6 6 -1 11 2 17 5 13 3 -3 4 -12 1 -19z m393 -23 c0
-3 -9 0 -20 7 -11 7 -20 18 -20 25 0 8 8 5 20 -7 11 -11 20 -22 20 -25z m290
25 c0 -11 -4 -20 -10 -20 -5 0 -10 9 -10 20 0 11 5 20 10 20 6 0 10 -9 10 -20z
m660 -16 c-18 -21 -24 -10 -9 18 8 14 14 18 17 10 2 -7 -2 -19 -8 -28z m-1090
5 c0 -6 -4 -7 -10 -4 -5 3 -10 11 -10 16 0 6 5 7 10 4 6 -3 10 -11 10 -16z
m30 11 c0 -5 -4 -10 -10 -10 -5 0 -10 5 -10 10 0 6 5 10 10 10 6 0 10 -4 10
-10z m728 -22 c-13 -18 -24 -36 -24 -40 -1 -5 -2 -11 -3 -15 -1 -5 -5 -2 -10
6 -7 11 -2 24 17 47 35 42 50 43 20 2z m-788 -4 c0 -8 -4 -12 -10 -9 -5 3 -10
13 -10 21 0 8 5 12 10 9 6 -3 10 -13 10 -21z m187 -6 c-3 -7 -5 -2 -5 12 0 14
2 19 5 13 2 -7 2 -19 0 -25z m858 10 c-10 -33 -51 -102 -69 -118 -9 -7 -16
-19 -16 -26 0 -12 -4 -15 -25 -14 -3 0 -18 -11 -33 -25 -25 -23 -42 -31 -42
-20 0 3 18 18 39 33 27 20 37 32 30 39 -7 7 2 28 30 64 23 30 41 61 41 69 0
13 1 13 10 0 8 -12 10 -12 16 3 9 25 26 21 19 -5z m-1057 -43 c-3 -3 -9 2 -12
12 -6 14 -5 15 5 6 7 -7 10 -15 7 -18z m64 -21 c-6 -12 -9 -7 -9 16 0 23 3 28
9 16 5 -9 5 -23 0 -32z m40 -30 c-20 -14 -20 -54 0 -54 6 0 8 7 4 15 -8 22 8
18 30 -7 19 -21 19 -21 -3 -16 -13 4 -23 3 -23 -1 0 -4 -9 -7 -20 -8 -16 -1
-19 4 -16 35 1 20 8 38 14 40 7 2 12 14 12 26 0 34 14 42 18 11 2 -18 -3 -32
-16 -41z m278 56 c0 -5 -2 -10 -4 -10 -3 0 -8 5 -11 10 -3 6 -1 10 4 10 6 0
11 -4 11 -10z m430 -9 c-10 -20 -30 -37 -30 -26 0 11 25 45 33 45 4 0 3 -9 -3
-19z m-909 -28 l24 -26 -27 19 c-15 10 -28 22 -28 27 0 12 5 8 31 -20z m1059
13 c0 -2 -8 -10 -17 -17 -16 -13 -17 -12 -4 4 13 16 21 21 21 13z m-814 -24
c-3 -3 -1 -11 5 -19 12 -14 9 -16 -14 -7 -9 3 -13 13 -10 25 3 10 10 16 15 13
5 -3 7 -9 4 -12z m970 -2 c0 -11 -4 -20 -8 -20 -10 0 -11 24 -1 33 9 9 9 10 9
-13z m-665 -108 c-9 -15 -10 -14 -11 8 0 14 -5 32 -11 40 -9 13 -10 12 -5 -2
3 -10 1 -28 -4 -40 -9 -23 -9 -23 -9 -2 -1 12 -4 35 -7 52 -5 24 -2 31 12 34
25 4 50 -63 35 -90z m584 88 c-3 -5 -11 -10 -16 -10 -6 0 -7 5 -4 10 3 6 11
10 16 10 6 0 7 -4 4 -10z m-1092 -6 c3 -4 0 -19 -8 -35 -8 -15 -12 -34 -9 -43
4 -11 0 -13 -17 -9 -12 3 -24 15 -27 25 -3 14 -7 16 -12 8 -8 -14 -30 -5 -30
11 0 6 5 7 10 4 6 -3 10 -2 10 3 0 5 9 12 20 15 16 4 20 0 21 -21 l2 -27 4 25
c8 48 18 61 36 44z m114 -44 c1 -11 -2 -20 -7 -20 -6 0 -10 3 -10 8 0 4 -3 18
-6 32 -6 20 -4 23 7 13 7 -7 14 -22 16 -33z m1188 20 c12 -4 27 -15 34 -24 12
-14 11 -20 -10 -42 l-24 -26 29 8 c26 6 27 5 17 -15 -7 -12 -10 -25 -7 -30 3
-5 -20 -42 -52 -83 -31 -41 -82 -111 -111 -156 -51 -76 -81 -106 -67 -64 3 9
-8 1 -24 -18 -17 -19 -30 -28 -29 -20 1 8 -1 23 -6 33 -6 14 -10 16 -16 6 -4
-8 -3 -20 3 -29 7 -8 1 -5 -11 7 l-23 21 28 36 c16 20 32 36 37 36 4 0 7 5 7
12 0 15 -189 -184 -190 -199 0 -7 -4 -13 -8 -13 -5 0 -44 -45 -88 -99 -43 -54
-80 -95 -82 -90 -2 5 16 31 39 59 35 41 40 53 29 60 -12 7 -8 16 19 44 18 19
30 39 26 45 -9 16 -25 4 -25 -19 0 -10 -6 -20 -13 -23 -19 -7 -15 26 5 46 8 9
24 14 34 13 10 -2 32 11 49 28 17 17 57 55 88 84 72 68 87 91 18 30 -29 -27
-57 -48 -62 -48 -15 0 2 29 20 35 22 7 69 55 54 55 -6 0 -16 -7 -23 -15 -9
-11 -16 -12 -25 -5 -9 7 -27 -2 -67 -35 -30 -25 -58 -45 -62 -45 -3 0 -6 12
-6 28 -1 24 -2 25 -11 9 -7 -13 -7 -22 0 -31 8 -9 -1 -22 -35 -50 -24 -20 -42
-41 -39 -47 3 -5 -1 -6 -10 -3 -9 4 -15 3 -14 -2 3 -20 -2 -34 -12 -34 -8 0
-8 5 1 15 7 9 8 15 2 15 -15 0 -22 -25 -11 -41 8 -11 13 -10 28 9 23 26 47 21
53 -12 5 -26 -26 -69 -57 -80 -14 -5 -10 3 14 28 26 27 31 36 18 36 -9 0 -17
-4 -17 -9 0 -5 -8 -12 -17 -16 -12 -4 -9 3 10 22 42 45 32 52 -13 8 -22 -21
-40 -34 -40 -28 0 6 6 13 13 16 9 3 9 7 -2 20 -10 13 -17 15 -27 6 -8 -6 -14
-8 -14 -3 0 5 20 27 45 49 25 22 45 49 46 60 0 19 1 19 8 1 8 -22 15 -15 25
26 10 43 55 90 78 82 13 -4 18 -2 14 4 -3 5 1 13 10 16 22 9 32 -3 14 -14 -10
-6 -11 -10 -3 -10 17 0 36 38 30 61 -3 10 -1 19 4 19 5 0 16 15 25 33 24 46
49 68 63 54 8 -8 11 -8 11 2 0 7 6 11 13 8 6 -2 17 9 24 23 7 17 32 39 65 56
29 16 53 36 53 44 1 8 7 14 14 12 8 -2 11 3 8 11 -4 10 3 17 22 20 18 4 31 14
34 27 6 22 12 22 72 0z m-1520 0 c3 -5 1 -10 -6 -10 -7 0 -29 -15 -48 -32 -34
-32 -27 -16 13 30 21 24 32 27 41 12z m459 -16 c9 -22 8 -24 -9 -18 -8 4 -15
12 -15 20 0 19 16 18 24 -2z m556 6 c0 -5 -5 -10 -11 -10 -5 0 -7 5 -4 10 3 6
8 10 11 10 2 0 4 -4 4 -10z m350 -4 c0 -3 -4 -8 -10 -11 -5 -3 -10 -1 -10 4 0
6 5 11 10 11 6 0 10 -2 10 -4z m-385 -16 c-3 -5 -12 -10 -18 -10 -7 0 -6 4 3
10 19 12 23 12 15 0z m801 -15 c13 -10 15 -14 5 -15 -8 0 -12 -3 -9 -6 4 -3
17 0 30 7 12 6 20 8 16 4 -4 -4 -1 -17 7 -29 18 -25 19 -58 3 -74 -12 -12 -26
-77 -32 -153 -3 -25 -13 -64 -22 -85 -10 -21 -20 -43 -22 -49 -3 -5 4 1 15 15
24 30 48 102 64 193 7 37 16 67 21 67 11 0 15 -27 27 -155 l9 -110 -2 123 c-2
67 -1 121 1 118 2 -2 8 -52 13 -112 9 -117 -2 -276 -26 -359 -13 -47 -14 -47
-9 -10 3 22 7 78 10 125 l4 85 -15 -110 c-8 -60 -16 -126 -17 -147 -1 -20 -4
-34 -7 -32 -2 3 -14 -24 -25 -58 -12 -35 -25 -72 -30 -82 -6 -14 -5 -17 4 -12
16 10 -10 -53 -52 -123 -55 -94 -224 -258 -244 -237 -3 3 -13 -4 -22 -15 -11
-13 -31 -21 -63 -24 -26 -2 -58 -6 -70 -10 -20 -5 -19 -3 7 17 17 12 46 39 65
58 26 25 27 28 5 9 -81 -68 -119 -91 -175 -106 -60 -15 -97 -12 -85 7 3 5 -1
10 -9 10 -9 0 -16 5 -16 10 0 6 5 10 10 10 11 0 72 54 126 110 19 19 38 35 42
35 10 0 100 101 152 170 20 28 58 91 85 140 26 50 54 97 61 105 20 24 122 242
128 273 6 35 -9 27 -19 -10 -3 -15 -18 -51 -32 -79 -30 -62 -66 -84 -105 -63
-20 11 -22 10 -10 -3 7 -9 10 -22 6 -31 -3 -8 -1 -32 5 -52 9 -34 7 -42 -21
-84 -18 -25 -38 -51 -46 -57 -9 -6 -12 -16 -9 -22 4 -5 -13 -35 -39 -66 -25
-31 -43 -60 -39 -65 3 -5 0 -13 -6 -17 -8 -5 -9 -3 -4 6 18 29 -35 -18 -101
-88 -37 -40 -73 -72 -79 -72 -7 0 -15 -9 -18 -20 -4 -17 -11 -20 -34 -14 -28
7 -77 44 -56 44 6 0 16 -7 23 -15 7 -8 22 -15 33 -15 15 0 8 8 -26 30 -52 33
-67 66 -49 112 6 16 6 28 1 28 -14 0 -11 42 6 74 8 15 15 37 15 48 0 35 81
189 104 198 27 10 60 46 52 58 -10 16 22 68 74 122 26 27 63 76 81 107 42 72
47 85 19 53 -18 -20 -21 -21 -15 -5 4 11 7 29 7 39 -1 27 17 58 29 50 6 -4 4
-15 -6 -30 -8 -13 -13 -24 -11 -24 6 0 86 119 86 127 0 3 -7 -1 -17 -8 -14
-12 -16 -12 -11 1 2 8 12 15 20 15 14 0 98 69 98 80 0 3 -12 -3 -27 -12 -15
-10 -24 -13 -20 -6 8 13 113 86 137 96 23 8 25 8 46 -8z m-1111 -5 c-3 -5 -10
-10 -16 -10 -5 0 -9 5 -9 10 0 6 7 10 16 10 8 0 12 -4 9 -10z m-604 -21 c13
-11 42 -37 64 -58 22 -20 47 -40 55 -45 8 -4 -4 10 -28 31 -29 27 -41 44 -37
55 4 10 13 14 22 11 12 -5 14 -3 8 8 -16 25 47 -21 98 -71 53 -54 65 -90 14
-44 -26 22 -25 21 4 -8 41 -41 64 -107 29 -86 -10 7 -17 15 -14 19 7 11 -28
16 -53 8 -13 -5 -25 -4 -29 2 -3 6 -11 8 -18 6 -19 -7 -58 12 -50 25 5 8 2 9
-10 5 -9 -4 -15 -3 -12 1 3 5 -8 28 -25 53 -16 24 -29 49 -29 55 0 6 -7 17
-15 24 -16 14 -20 30 -7 30 5 0 20 -9 33 -21z m919 17 c0 -3 -4 -8 -10 -11 -5
-3 -10 -1 -10 4 0 6 5 11 10 11 6 0 10 -2 10 -4z m-874 -33 c-7 -7 -26 7 -26
19 0 6 6 6 15 -2 9 -7 13 -15 11 -17z m829 15 c-30 -16 -31 -18 -15 -29 12 -8
11 -9 -5 -7 -13 2 -19 -2 -17 -12 3 -12 1 -13 -10 -2 -11 11 -8 18 15 38 15
13 33 24 40 24 7 0 3 -6 -8 -12z m-933 -26 c9 4 21 -6 31 -26 17 -30 17 -30 0
-11 -10 11 -29 21 -42 22 -29 2 -35 8 -26 23 6 9 9 9 15 0 4 -7 14 -11 22 -8z
m1888 -44 c0 -20 -18 -5 -23 19 -5 26 -4 26 9 8 8 -10 14 -22 14 -27z m-940
28 c0 -2 -8 -10 -17 -17 -16 -13 -17 -12 -4 4 13 16 21 21 21 13z m-957 -65
c9 -14 17 -21 17 -14 0 6 -4 15 -10 18 -5 3 -10 12 -10 18 1 7 17 -6 37 -28
20 -22 32 -34 28 -26 -5 9 -4 12 2 8 6 -4 10 -17 9 -29 -1 -13 9 -47 22 -77
12 -29 20 -56 16 -60 -4 -3 -9 -1 -11 6 -3 9 -10 9 -28 1 -14 -6 -21 -16 -18
-24 11 -28 -23 -13 -59 27 -38 42 -67 111 -48 117 6 2 10 8 10 13 0 6 -4 7
-10 4 -7 -4 -7 3 0 20 7 17 7 24 0 20 -6 -3 -10 1 -10 9 0 9 4 16 10 16 5 0 7
7 3 16 -9 25 30 -3 50 -35z m695 32 c-2 -10 -10 -17 -16 -15 -7 1 -12 -4 -12
-12 0 -8 -4 -18 -10 -21 -7 -4 -7 3 0 19 5 14 7 26 4 26 -3 0 -2 5 1 10 11 17
37 11 33 -7z m197 7 c3 -5 0 -7 -7 -5 -8 3 -27 -9 -43 -26 -17 -18 -24 -29
-17 -25 15 9 16 -10 1 -20 -6 -3 -15 0 -20 7 -6 10 -9 11 -9 2 0 -7 -4 -13
-10 -13 -19 0 3 31 44 60 46 32 52 34 61 20z m-975 -34 c0 -18 3 -48 6 -66 7
-32 6 -32 -17 -19 -13 7 -19 14 -13 16 7 2 9 22 6 53 -3 33 -1 50 7 50 6 0 11
-15 11 -34z m1274 9 c-4 -8 -10 -15 -15 -15 -4 0 -6 7 -3 15 4 8 10 15 15 15
4 0 6 -7 3 -15z m-59 -25 c-10 -11 -23 -20 -29 -20 -6 1 0 10 13 20 30 26 39
26 16 0z m-725 -50 c0 -5 -4 -10 -10 -10 -5 0 -10 5 -10 10 0 6 5 10 10 10 6
0 10 -4 10 -10z m-603 -22 c-3 -8 -6 -5 -6 6 -1 11 2 17 5 13 3 -3 4 -12 1
-19z m116 -41 c12 -24 16 -42 10 -50 -11 -14 -35 -120 -31 -133 3 -10 -5 -14
-27 -14 -8 0 -15 7 -15 16 0 10 6 14 14 11 11 -5 11 5 0 61 -23 121 -26 132
-35 126 -10 -6 -11 -1 -3 19 4 10 14 12 37 8 24 -5 37 -16 50 -44z m295 -12
c0 -11 3 -55 7 -97 6 -76 0 -93 -23 -65 -7 8 -7 18 -2 27 11 17 -5 40 -28 40
-13 0 -12 -3 3 -20 10 -11 13 -20 8 -20 -12 0 -27 29 -24 44 1 5 -3 12 -10 16
-6 4 -13 18 -15 31 -2 13 -7 37 -10 53 -5 19 -3 27 4 22 6 -4 8 1 5 13 -5 19
-3 19 40 -2 30 -15 45 -28 45 -42z m146 49 c3 -8 2 -12 -4 -9 -6 3 -10 1 -10
-4 0 -6 7 -11 15 -11 8 0 15 -4 15 -9 0 -5 3 -18 7 -28 4 -10 -7 -4 -25 16
-30 31 -43 59 -22 46 6 -3 10 -1 10 4 0 16 7 13 14 -5z m84 -16 c13 -42 14
-108 2 -108 -12 0 -40 29 -40 41 0 6 5 7 11 3 8 -5 8 -1 0 14 -15 28 -14 37 3
23 11 -9 12 -6 8 15 -3 18 -7 22 -13 13 -4 -8 -11 -10 -15 -6 -7 7 14 37 26
37 5 0 13 -15 18 -32z m667 12 c-3 -5 -14 -10 -23 -10 -15 0 -15 2 -2 10 20
13 33 13 25 0z m-45 -45 c-7 -8 -17 -15 -22 -15 -11 0 14 29 26 30 5 0 3 -7
-4 -15z m-720 -5 c0 -5 -2 -10 -4 -10 -3 0 -8 5 -11 10 -3 6 -1 10 4 10 6 0
11 -4 11 -10z m660 -20 c-6 -11 -13 -20 -15 -20 -3 0 -5 9 -5 20 0 11 7 20 15
20 13 0 14 -4 5 -20z m-1164 -88 c5 -41 3 -54 -4 -47 -6 6 -14 42 -17 80 -7
85 11 56 21 -33z m1112 74 c-10 -7 -14 -17 -11 -22 4 -5 1 -3 -7 4 -13 12 -13
15 4 28 11 7 22 11 25 8 3 -3 -2 -11 -11 -18z m-529 -86 c0 -8 -5 -4 -11 10
-5 14 -14 33 -19 42 -5 10 -9 23 -8 30 1 18 39 -63 38 -82z m964 10 c-73 -110
-79 -120 -88 -128 -15 -13 59 116 93 163 52 73 49 46 -5 -35z m-1632 43 c53
-44 66 -73 33 -73 -15 0 -15 -2 0 -25 20 -30 13 -32 -21 -5 -14 11 -28 18 -32
16 -3 -2 -7 20 -9 50 -1 30 0 54 3 54 2 0 14 -8 26 -17z m1344 -40 c-95 -84
-145 -125 -145 -116 0 7 44 48 150 141 19 17 37 28 40 25 3 -3 -17 -25 -45
-50z m-1071 -53 c-3 -19 -6 -52 -5 -73 1 -21 -1 -42 -4 -46 -3 -5 -26 10 -51
34 l-47 43 5 60 c4 33 9 65 13 71 4 7 23 -1 51 -22 42 -30 44 -34 38 -67z
m866 96 c0 -3 -4 -8 -10 -11 -5 -3 -10 -1 -10 4 0 6 5 11 10 11 6 0 10 -2 10
-4z m-753 -51 c50 -61 74 -124 80 -218 6 -81 -10 -162 -30 -150 -6 4 -7 1 -3
-6 9 -15 -1 -61 -13 -61 -13 0 -52 70 -45 81 3 5 0 8 -7 7 -6 -2 -22 22 -34
52 -12 30 -29 72 -39 92 -14 29 -15 41 -6 57 6 12 8 26 5 31 -4 6 -1 25 4 43
6 17 16 51 21 75 6 23 15 42 20 42 5 0 26 -20 47 -45z m599 -3 c-3 -5 -16 -12
-28 -15 l-23 -6 24 20 c23 19 39 20 27 1z m384 4 c0 -14 -69 -78 -80 -74 -8 2
2 18 26 41 35 33 54 45 54 33z m-342 -13 c-2 -9 40 -93 47 -93 6 0 -15 50 -28
68 -20 26 1 22 22 -4 35 -45 23 -100 -37 -168 -25 -29 -37 -36 -55 -31 -17 5
-19 4 -7 -4 12 -8 12 -13 3 -22 -14 -14 -23 -9 -27 13 -1 7 -12 29 -24 48 -29
46 -30 150 -1 150 4 0 6 -6 3 -13 -2 -7 2 -27 11 -43 8 -16 15 -36 16 -44 0
-10 3 -8 8 5 4 11 6 40 3 65 -6 64 11 41 33 -43 10 -37 23 -71 28 -74 6 -4 7
3 3 18 -4 13 -11 38 -16 54 -5 17 -12 41 -16 55 -14 48 25 2 41 -49 14 -41 15
-42 11 -11 -7 54 -24 91 -46 97 -16 4 -18 8 -9 19 12 15 40 19 37 7z m400 -66
c-29 -34 -74 -82 -99 -107 -26 -25 -54 -57 -64 -72 -16 -27 -16 -28 1 -35 10
-4 19 -2 22 5 2 6 24 38 50 71 26 33 58 75 71 94 17 23 32 33 50 32 18 0 27 6
29 20 2 15 1 17 -6 6 -11 -16 -24 0 -13 17 5 9 11 9 25 -1 16 -12 12 -20 -58
-105 -49 -58 -81 -89 -90 -86 -8 3 -17 0 -22 -7 -5 -9 -2 -10 10 -6 16 6 16 5
1 -21 -9 -15 -28 -40 -42 -57 -21 -26 -24 -27 -18 -7 12 41 -33 18 -65 -33
-12 -19 -26 -35 -32 -35 -6 0 -5 6 2 15 7 9 10 18 7 21 -3 3 11 21 31 40 24
23 33 37 24 41 -13 5 4 34 57 99 14 18 35 44 46 59 40 56 114 127 125 120 6
-4 -10 -30 -42 -68z m-1628 -2 c0 -8 -4 -15 -10 -15 -5 0 -10 7 -10 15 0 8 5
15 10 15 6 0 10 -7 10 -15z m190 4 c0 -14 36 -60 42 -53 3 2 11 -3 18 -12 8
-9 10 -18 4 -22 -11 -8 -11 -40 0 -64 16 -35 -1 -40 -22 -7 -12 19 -17 35 -12
37 5 2 -2 26 -15 53 -28 55 -42 66 -22 17 8 -18 12 -39 9 -47 -3 -8 0 -11 7
-7 7 5 9 1 5 -9 -5 -12 -9 -13 -21 -4 -7 7 -12 17 -10 23 3 6 0 19 -5 29 -11
21 -1 77 13 77 5 0 9 -5 9 -11z m-225 -18 c3 -5 1 -12 -5 -16 -5 -3 -10 1 -10
9 0 18 6 21 15 7z m145 -13 c0 -16 -3 -19 -11 -11 -6 6 -8 16 -5 22 11 17 16
13 16 -11z m1624 -3 c-4 -8 -10 -15 -15 -15 -5 0 -8 -3 -7 -7 4 -14 -13 -53
-23 -53 -12 0 -12 17 1 25 6 3 10 11 10 16 0 5 -14 -4 -31 -22 -29 -30 -29
-32 -13 -50 16 -18 16 -19 -14 -19 -18 0 -32 -4 -32 -10 0 -5 -5 -9 -12 -7
-10 2 -37 -36 -64 -90 -3 -7 -13 -13 -21 -13 -14 0 27 68 73 120 12 14 40 46
61 71 21 25 44 44 49 42 6 -2 17 3 24 12 16 19 21 19 14 0z m-1594 -26 c0 -6
-4 -7 -10 -4 -5 3 -10 11 -10 16 0 6 5 7 10 4 6 -3 10 -11 10 -16z m904 5 c3
-9 6 -23 6 -32 0 -9 9 -28 20 -42 26 -33 25 -37 -9 -32 -21 3 -33 12 -41 33
-7 16 -19 29 -26 29 -19 0 -18 15 3 31 11 10 14 10 9 2 -4 -7 -3 -13 2 -13 6
0 17 -17 25 -37 9 -21 16 -30 16 -20 1 10 -6 34 -14 54 -18 42 -18 43 -6 43 5
0 12 -7 15 -16z m-722 -41 c-10 -28 -10 -28 -11 12 -1 28 2 36 10 28 8 -8 8
-19 1 -40z m94 -6 c12 -23 26 -41 31 -40 15 3 58 -45 49 -54 -4 -4 -16 3 -26
17 l-20 25 12 -31 c6 -18 17 -30 23 -27 21 7 47 -61 35 -92 -5 -14 -10 -38
-10 -51 0 -14 -4 -22 -10 -19 -5 3 -7 0 -5 -8 3 -7 1 -24 -4 -38 -7 -17 -10
-19 -10 -6 -1 15 -4 15 -22 5 -18 -12 -24 -9 -50 20 -16 18 -29 27 -29 20 -1
-8 -6 -7 -14 4 -7 10 -16 15 -19 12 -15 -15 -45 63 -53 134 -11 106 -11 121
-2 116 4 -3 8 -16 8 -29 0 -32 18 -42 22 -13 3 19 7 15 18 -19 7 -24 19 -43
26 -43 7 0 15 -6 18 -12 3 -7 4 -2 3 12 -1 14 -8 24 -14 23 -6 -1 -9 6 -6 16
3 10 -2 32 -11 49 -20 40 -21 59 -2 43 11 -9 15 -8 21 6 5 10 7 23 6 28 -5 19
13 -6 35 -48z m674 26 c0 -16 9 -43 20 -61 24 -39 25 -49 4 -31 -35 29 -61
119 -34 119 6 0 10 -12 10 -27z m-1079 -16 c-8 -8 -11 -7 -11 4 0 20 13 34 18
19 3 -7 -1 -17 -7 -23z m84 23 c3 -5 1 -10 -4 -10 -6 0 -11 5 -11 10 0 6 2 10
4 10 3 0 8 -4 11 -10z m198 -10 c3 -11 1 -20 -4 -20 -5 0 -9 9 -9 20 0 11 2
20 4 20 2 0 6 -9 9 -20z m-109 -111 c22 -27 45 -49 51 -49 20 0 114 -194 101
-207 -6 -6 -60 21 -84 41 -20 18 -31 22 -79 28 -7 1 -10 5 -8 9 3 4 -8 15 -23
25 -48 31 -86 103 -75 144 5 19 6 20 20 3 10 -13 9 -8 -3 16 -15 32 -15 34 1
27 16 -6 17 -5 1 19 -9 14 -14 30 -11 36 8 12 57 -29 109 -92z m1538 79 c-7
-7 -12 -8 -12 -2 0 6 3 14 7 17 3 4 9 5 12 2 2 -3 -1 -11 -7 -17z m-721 -19
c11 -11 18 -24 14 -27 -4 -4 -12 0 -18 8 -7 9 -23 21 -37 27 -24 11 -25 12 -2
12 12 1 31 -8 43 -20z m423 -4 c-4 -8 -8 -15 -10 -15 -2 0 -4 7 -4 15 0 8 4
15 10 15 5 0 7 -7 4 -15z m-481 -2 c11 -19 17 -64 8 -59 -13 8 -32 66 -21 66
5 0 11 -3 13 -7z m-22 -35 c11 -21 11 -22 -4 -9 -20 16 -23 1 -5 -17 10 -10
10 -15 -2 -22 -16 -10 -33 7 -23 24 3 5 1 6 -5 2 -18 -11 -14 5 6 25 22 23 19
23 33 -3z m67 -3 c-3 -3 -9 2 -12 12 -6 14 -5 15 5 6 7 -7 10 -15 7 -18z m353
-13 c-11 -21 -41 -48 -41 -38 0 11 34 55 43 56 4 0 3 -8 -2 -18z m-261 0 c0
-5 -7 -9 -15 -9 -8 0 -15 4 -15 9 0 4 7 8 15 8 8 0 15 -4 15 -8z m185 -12
c-10 -11 -20 -18 -23 -15 -7 6 18 35 31 35 5 0 2 -9 -8 -20z m-388 -27 c12
-17 12 -21 0 -26 -8 -3 -14 0 -13 6 0 7 -3 12 -9 12 -5 0 -10 -5 -9 -10 1 -6
-7 -12 -17 -12 -12 -1 -16 3 -12 13 3 8 9 14 14 14 5 0 9 7 9 16 0 20 19 14
37 -13z m168 7 c0 -7 -5 -15 -10 -17 -6 -2 -11 6 -11 17 0 11 5 19 11 17 5 -2
10 -10 10 -17z m-255 -10 c0 -5 -5 -10 -11 -10 -5 0 -7 5 -4 10 3 6 8 10 11
10 2 0 4 -4 4 -10z m370 -25 c0 -3 -9 -1 -20 5 -11 6 -18 15 -15 21 6 9 35
-12 35 -26z m101 17 c-5 -10 -18 -25 -28 -33 -12 -10 -11 -5 6 19 24 35 38 43
22 14z m-156 -2 c-10 -16 -86 -52 -93 -45 -12 11 48 55 74 55 15 0 23 -4 19
-10z m-308 -32 c2 -17 0 -19 -7 -8 -8 12 -10 12 -16 -3 -3 -9 -10 -17 -15 -17
-5 0 -2 11 7 25 20 31 29 32 31 3z m501 2 c-15 -23 -24 -25 -34 -8 -4 6 -3 8
3 5 6 -4 16 0 23 8 18 21 22 18 8 -5z m-312 -4 c19 -19 18 -40 -1 -32 -9 3
-15 0 -15 -9 0 -14 -12 -19 -32 -16 -5 0 -8 -5 -8 -11 -1 -13 -34 -58 -43 -58
-12 0 -18 63 -8 73 8 8 11 5 11 -10 0 -12 5 -25 12 -29 7 -4 8 -3 4 5 -4 6 -2
27 5 46 10 27 17 34 31 29 12 -3 18 0 18 10 0 20 7 20 26 2z m384 10 c0 -2 -7
-6 -15 -10 -8 -3 -15 -1 -15 4 0 6 7 10 15 10 8 0 15 -2 15 -4z m-260 -20 c0
-3 -4 -8 -10 -11 -5 -3 -10 -1 -10 4 0 6 5 11 10 11 6 0 10 -2 10 -4z m230
-18 c0 -4 -7 -8 -15 -8 -8 0 -15 4 -15 8 0 5 7 9 15 9 8 0 15 -4 15 -9z m164
-13 c-9 -14 -13 -25 -10 -25 4 0 1 -6 -6 -14 -14 -15 -23 -12 -23 7 0 10 43
56 53 57 1 0 -5 -11 -14 -25z m-401 5 c8 0 8 -3 -1 -12 -13 -13 2 -38 23 -38
7 0 15 -10 18 -22 4 -13 13 -32 22 -43 16 -20 16 -20 6 2 -14 27 -14 33 0 33
5 0 8 -4 5 -9 -3 -5 1 -14 9 -21 10 -8 11 -17 5 -28 -6 -10 -14 -29 -20 -44
-5 -16 -14 -28 -20 -28 -6 0 -8 4 -5 10 3 5 0 7 -8 4 -8 -3 -17 3 -21 13 -6
15 -9 15 -17 3 -9 -12 -10 -12 -5 3 3 11 0 33 -8 50 -24 54 -28 77 -16 92 10
12 10 19 -1 32 -12 15 -12 16 4 10 10 -4 24 -7 30 -7z m-379 -45 c-9 -14 -19
-24 -21 -21 -6 6 20 46 30 46 4 0 0 -11 -9 -25z m116 -40 c0 -30 -4 -55 -9
-55 -5 0 -16 -6 -23 -12 -8 -7 -29 -26 -47 -43 l-32 -30 7 55 c7 54 18 80 35
80 5 0 7 -11 3 -24 -3 -14 -1 -27 6 -31 9 -5 10 -1 5 14 -5 15 -2 21 9 21 11
0 18 13 22 40 9 58 24 49 24 -15z m581 31 c-7 -8 -10 -19 -7 -24 8 -14 -25
-55 -35 -45 -11 11 -1 43 12 43 5 0 9 9 9 19 0 11 6 21 13 24 18 6 21 -1 8
-17z m-401 4 c0 -5 -4 -10 -10 -10 -5 0 -10 5 -10 10 0 6 5 10 10 10 6 0 10
-4 10 -10z m167 -12 c-3 -8 -6 -5 -6 6 -1 11 2 17 5 13 3 -3 4 -12 1 -19z
m-550 -20 c-3 -8 -6 -5 -6 6 -1 11 2 17 5 13 3 -3 4 -12 1 -19z m347 0 c-3
-13 -11 -24 -15 -26 -5 -2 -9 -12 -9 -22 0 -10 -4 -22 -10 -25 -13 -8 -13 20
-1 43 5 9 12 25 15 35 3 9 10 17 16 17 7 0 9 -9 4 -22z m70 -113 l15 -40 -3
35 c-3 19 -9 48 -15 63 -14 35 -14 55 -2 42 5 -6 18 -37 29 -70 12 -33 21 -51
22 -40 0 18 2 18 20 -5 23 -30 25 -40 6 -40 -8 0 -16 -7 -20 -15 -7 -20 -36
-8 -29 13 4 14 3 14 -5 3 -8 -11 -11 -9 -17 8 -4 13 -9 20 -12 17 -3 -3 4 -21
16 -40 13 -21 18 -37 12 -41 -6 -3 -20 14 -32 37 -12 24 -28 50 -35 59 -20 23
-35 77 -23 85 5 3 12 -8 15 -25 4 -16 14 -37 25 -46 17 -16 17 -15 7 19 -6 20
-15 36 -20 36 -4 0 -8 17 -8 38 l1 37 18 -45 c11 -25 26 -63 35 -85z m159 105
c-3 -11 -7 -20 -9 -20 -2 0 -4 9 -4 20 0 11 4 20 9 20 5 0 7 -9 4 -20z m84 4
c-3 -3 -12 -4 -19 -1 -8 3 -5 6 6 6 11 1 17 -2 13 -5z m-707 -49 c0 -11 -5
-27 -11 -35 -8 -11 -9 -6 -5 23 4 30 2 37 -12 37 -14 0 -15 2 -2 10 17 10 30
-4 30 -35z m-157 -87 c9 -15 17 -33 17 -39 0 -14 -89 121 -90 135 0 9 38 -42
73 -96z m843 70 c-11 -15 -16 -18 -16 -7 0 16 21 42 28 34 2 -2 -3 -14 -12
-27z m-716 -15 c0 -24 -3 -33 -9 -25 -7 12 -4 62 5 62 2 0 4 -17 4 -37z m73 5
c-9 -51 -22 -69 -20 -28 2 32 12 60 22 60 3 0 2 -15 -2 -32z m90 -25 c-4 -35
-10 -53 -19 -53 -8 0 -11 -6 -8 -15 4 -10 0 -15 -15 -15 -12 0 -21 -6 -21 -15
0 -21 -41 -76 -52 -69 -4 3 -8 0 -8 -6 0 -13 -38 -55 -44 -49 -8 8 6 49 14 44
5 -3 13 7 18 23 12 32 47 78 38 50 -3 -10 -1 -20 4 -23 6 -4 10 4 10 17 0 13
3 34 7 47 6 23 7 23 14 5 7 -17 8 -17 8 5 1 17 5 22 17 17 12 -4 15 -2 10 9
-5 13 23 90 30 82 1 -1 -1 -26 -3 -54z m592 37 c-3 -5 -2 -10 4 -10 6 0 7 -8
4 -17 -6 -15 -7 -14 -13 3 -7 18 -4 34 6 34 3 0 2 -4 -1 -10z m-1015 -15 c7
-8 15 -13 19 -11 10 6 46 -10 46 -20 0 -5 10 -20 21 -32 22 -24 39 -92 26
-102 -4 -3 -9 -21 -11 -40 -1 -19 -5 -37 -7 -40 -9 -8 -24 25 -20 42 2 9 -2
19 -10 22 -8 3 -11 0 -8 -8 3 -7 -2 -18 -10 -25 -16 -13 -36 -7 -36 10 0 6 5
7 10 4 6 -3 10 -1 10 5 0 6 -7 13 -15 16 -18 7 -19 28 -2 42 10 8 20 5 39 -13
23 -21 28 -22 39 -9 10 12 10 17 -1 27 -10 9 -11 9 -6 0 4 -7 4 -13 1 -13 -12
0 -65 44 -65 55 0 6 -18 19 -40 29 -41 18 -51 41 -28 64 16 16 33 15 48 -3z
m55 5 c3 -5 1 -10 -4 -10 -6 0 -11 5 -11 10 0 6 2 10 4 10 3 0 8 -4 11 -10z
m561 -7 c-9 -22 13 -88 25 -76 6 6 6 20 0 36 -6 14 -7 28 -3 31 4 2 14 -19 23
-47 11 -32 12 -45 4 -34 -13 18 -25 13 -25 -10 0 -8 4 -12 9 -8 5 3 13 0 17
-6 4 -8 3 -9 -5 -5 -8 6 -10 0 -5 -18 10 -43 -5 -29 -31 27 -26 54 -33 127
-14 127 6 0 8 -7 5 -17z m-406 -3 c8 -5 12 -12 9 -15 -8 -8 -39 5 -39 16 0 11
11 11 30 -1z m744 -32 c-4 -6 -10 -5 -15 3 -14 22 -10 33 6 19 8 -7 12 -17 9
-22z m275 -32 c-9 -8 -10 -7 -5 7 3 10 7 28 7 40 2 16 3 14 6 -7 3 -16 -1 -34
-8 -40z m-541 17 c6 -16 11 -21 12 -13 0 8 12 -9 26 -39 20 -42 22 -56 13 -67
-16 -20 -25 -9 -48 56 -10 30 -22 63 -26 73 -4 9 -3 17 3 17 6 0 15 -12 20
-27z m322 17 c12 -8 12 -10 1 -10 -20 0 7 -30 28 -30 14 -1 13 -2 -2 -11 -15
-9 -24 -6 -42 11 -13 12 -21 28 -18 36 6 16 13 17 33 4z m40 0 c0 -5 -2 -10
-4 -10 -3 0 -8 5 -11 10 -3 6 -1 10 4 10 6 0 11 -4 11 -10z m-861 -9 c9 -6 10
-11 2 -15 -6 -4 -11 -2 -11 5 0 7 -2 10 -5 8 -8 -8 7 -49 16 -43 5 3 6 -2 3
-10 -10 -25 -20 -19 -37 24 -14 37 -14 40 1 40 9 0 23 -4 31 -9z m401 -11 c0
-21 33 -94 55 -120 6 -8 15 -23 19 -34 5 -14 2 -17 -9 -12 -9 3 -14 2 -11 -3
3 -4 -3 -16 -14 -26 -22 -20 -28 -7 -7 14 10 10 9 11 -4 6 -18 -7 -34 26 -59
117 -10 38 -10 49 1 62 19 21 29 20 29 -4z m-320 -15 c0 -25 -14 -34 -24 -16
-8 12 3 41 15 41 5 0 9 -11 9 -25z m831 11 c17 10 75 -16 101 -44 22 -25 23
-31 14 -75 l-11 -49 -11 36 c-9 30 -9 34 2 25 8 -6 14 -9 14 -6 0 11 -89 67
-106 67 -19 0 -64 -37 -64 -53 0 -5 9 2 21 17 11 14 30 26 41 26 l21 0 -21
-23 c-12 -13 -22 -30 -22 -38 0 -8 18 -69 40 -137 44 -136 46 -150 28 -219
-15 -55 -79 -124 -151 -162 -39 -21 -51 -23 -83 -15 -46 11 -55 30 -17 38 100
20 109 20 94 3 -7 -10 -9 -17 -3 -17 5 0 27 21 48 48 21 26 46 53 55 59 17 13
49 93 49 122 0 14 -2 14 -11 1 -7 -11 -8 -5 -3 22 9 53 -31 164 -67 186 -23
15 -25 0 -2 -23 9 -10 17 -32 17 -51 1 -19 3 -34 6 -34 4 0 4 -16 2 -37 l-5
-36 -14 39 c-25 71 -52 159 -55 184 -1 16 10 43 32 75 19 28 35 53 36 58 1 4
2 13 4 20 1 9 3 9 7 -1 2 -6 9 -10 14 -6z m-1746 -11 c17 2 25 1 18 -2 -7 -2
4 -20 28 -44 31 -31 38 -43 29 -54 -6 -8 -7 -16 -2 -19 19 -12 23 -119 6 -176
-36 -122 -95 -201 -160 -215 l-29 -7 25 21 c14 11 28 21 32 21 4 0 19 20 34
45 25 44 26 52 25 171 -2 135 -9 164 -59 216 -35 38 -24 43 25 11 42 -27 63
-58 63 -92 0 -10 7 -24 15 -31 9 -8 15 -9 15 -2 0 6 -4 14 -10 17 -5 3 -10 17
-10 30 0 28 -44 83 -77 96 -12 5 -23 14 -23 20 0 8 4 8 13 1 6 -5 26 -8 42 -7z
m1655 -37 c0 -5 -13 1 -30 14 -16 12 -30 26 -30 30 0 5 14 -1 30 -14 17 -12
30 -26 30 -30z m-20 -12 c8 -13 9 -21 1 -27 -6 -5 -9 -6 -7 -3 9 13 -36 52
-55 47 -13 -4 -19 0 -19 12 0 14 3 15 15 5 13 -11 14 -10 8 5 -6 17 -5 17 19
-1 14 -10 31 -27 38 -38z m-1880 27 c0 -5 -13 -17 -29 -27 -68 -46 -119 -163
-105 -245 4 -25 8 -56 9 -68 1 -12 7 -29 14 -37 24 -28 6 -17 -25 16 -16 17
-23 28 -16 24 17 -10 15 14 -4 35 -9 10 -18 44 -21 79 -5 52 -2 68 17 103 27
50 77 106 105 117 26 11 55 12 55 3z m132 -5 c11 3 29 -5 44 -19 47 -44 57
-76 62 -204 4 -108 2 -125 -16 -161 -19 -37 -87 -94 -112 -94 -5 0 -10 -4 -10
-10 0 -5 -4 -10 -10 -10 -15 0 -12 41 4 59 24 27 54 136 60 213 l6 73 -14 -80
c-15 -96 -31 -148 -58 -193 -18 -30 -45 -36 -34 -7 3 8 -2 11 -15 8 -22 -6
-23 5 -10 57 15 58 24 167 12 150 -9 -12 -11 -10 -11 11 0 46 12 119 20 114 4
-2 5 -28 2 -57 -2 -29 -1 -50 3 -46 4 4 7 48 7 98 -1 49 3 90 8 90 14 0 38
-40 56 -93 9 -26 18 -46 21 -44 9 10 -21 93 -45 126 -19 26 -21 31 -7 24 10
-6 26 -8 37 -5z m724 4 c6 -4 14 -20 18 -36 6 -25 5 -28 -11 -22 -12 5 -9 -1
8 -16 14 -13 24 -28 22 -35 -2 -6 5 -19 15 -30 35 -33 38 -105 6 -117 -9 -3
-12 -1 -9 4 3 6 3 15 -1 21 -5 8 -9 8 -14 -1 -5 -8 -9 -7 -13 4 -4 9 -3 15 1
15 23 -4 22 4 -4 32 -19 21 -25 33 -16 36 6 3 12 14 11 26 l0 22 -11 -22 c-15
-32 -29 -29 -23 5 5 26 5 26 -5 3 -13 -30 -24 -20 -16 14 5 18 12 25 22 21 11
-4 12 -2 4 14 -12 22 -14 70 -2 70 4 0 12 -4 18 -8z m552 -24 c-5 -34 13 -94
25 -82 3 3 -1 17 -9 30 -15 22 -12 44 6 44 4 0 16 -21 26 -47 10 -27 22 -54
27 -60 6 -9 6 -13 -2 -13 -6 0 -11 -7 -11 -16 0 -14 -3 -14 -15 -4 -12 10 -15
10 -15 -1 0 -8 -9 -4 -24 10 -27 25 -40 85 -30 137 8 44 28 45 22 2z m-1371
11 c7 -7 7 -22 1 -47 -6 -20 -11 -95 -12 -166 -1 -90 -6 -131 -14 -134 -7 -2
-12 -19 -12 -38 0 -39 -4 -41 -47 -14 -44 27 -60 55 -72 126 -15 99 1 146 82
231 53 57 57 59 74 42z m863 -9 c0 -11 -4 -20 -10 -20 -5 0 -10 9 -10 20 0 11
5 20 10 20 6 0 10 -9 10 -20z m230 10 c0 -5 -4 -10 -10 -10 -5 0 -10 5 -10 10
0 6 5 10 10 10 6 0 10 -4 10 -10z m693 -14 c3 4 5 -3 4 -15 -1 -21 -27 -31
-27 -10 0 5 -4 8 -8 5 -4 -2 -9 4 -9 15 -1 15 2 17 16 9 10 -5 21 -7 24 -4z
m-778 -58 c5 -25 4 -38 -4 -38 -6 0 -11 5 -11 11 0 5 -4 8 -8 5 -5 -3 -7 5 -6
17 1 12 3 31 3 42 1 30 18 5 26 -37z m294 -1 c1 -10 -3 -16 -8 -13 -5 4 0 -13
11 -36 12 -24 21 -50 21 -58 0 -22 17 -41 31 -33 6 3 -2 -8 -18 -25 -32 -34
-63 -41 -72 -17 -4 8 -11 15 -16 15 -6 0 -6 -6 1 -14 8 -10 9 -16 1 -21 -5 -3
-10 -2 -10 3 0 6 -9 8 -20 5 -19 -5 -20 -6 -3 -19 12 -8 13 -13 5 -14 -7 0
-26 14 -42 30 -36 36 -39 82 -10 120 11 14 20 31 20 38 0 6 5 12 10 12 6 0 9
-3 9 -7 -5 -33 5 -74 22 -94 19 -21 21 -22 17 -4 -3 11 -9 29 -14 39 -6 15 -4
17 7 11 11 -6 12 -5 2 6 -15 16 -17 69 -3 69 6 0 10 -12 10 -26 0 -14 4 -23 8
-20 5 3 7 19 4 37 -3 22 -1 30 7 25 7 -5 11 3 12 21 0 25 1 26 9 8 5 -11 9
-28 9 -38z m406 43 c3 -5 -1 -10 -10 -10 -9 0 -13 5 -10 10 3 6 8 10 10 10 2
0 7 -4 10 -10z m408 -22 c7 -4 7 -11 -1 -21 -16 -19 -8 -103 9 -99 7 2 26 13
43 24 l31 21 -34 -36 c-19 -21 -40 -37 -47 -37 -19 0 -36 54 -33 107 3 58 10
85 17 62 3 -7 10 -17 15 -21z m-2293 -3 c-7 -9 -15 -13 -18 -10 -3 2 1 11 8
20 7 9 15 13 18 10 3 -2 -1 -11 -8 -20z m1509 -18 c0 -27 -2 -29 -9 -12 -12
28 -12 57 0 50 6 -3 10 -21 9 -38z m206 33 c3 -5 1 -10 -4 -10 -6 0 -11 5 -11
10 0 6 2 10 4 10 3 0 8 -4 11 -10z m-405 -28 c0 -8 -6 -12 -15 -8 -10 3 -15
-1 -15 -14 0 -23 -16 -35 -26 -18 -4 6 -2 14 4 16 7 2 12 11 12 21 0 10 8 17
20 17 11 0 20 -7 20 -14z m649 2 c23 -11 29 -20 22 -27 -7 -7 -16 -6 -28 4
-16 13 -17 12 -5 -2 13 -17 7 -49 -9 -49 -5 0 -17 9 -26 20 -23 26 -37 25 -30
-2 5 -18 4 -19 -7 -7 -18 19 -30 59 -18 59 6 0 13 -6 16 -12 5 -10 7 -10 12 0
3 6 10 12 15 12 6 0 8 -4 5 -9 -3 -4 3 -16 14 -26 11 -10 20 -13 20 -7 0 6 -4
14 -10 17 -9 6 -15 45 -7 45 2 0 18 -7 36 -16z m-129 -14 c0 -5 -5 -10 -11
-10 -5 0 -7 5 -4 10 3 6 8 10 11 10 2 0 4 -4 4 -10z m-1280 -19 c0 -12 -20
-25 -27 -18 -7 7 6 27 18 27 5 0 9 -4 9 -9z m356 -12 c3 -6 1 -16 -5 -22 -9
-9 -14 -8 -22 3 -7 11 -8 7 -3 -12 4 -17 2 -28 -4 -28 -17 0 -20 34 -4 53 17
20 28 22 38 6z m324 -28 c0 -27 -5 -41 -16 -45 -9 -4 -19 -4 -22 -1 -3 3 0 5
6 5 7 0 12 16 12 40 0 22 5 40 10 40 6 0 10 -18 10 -39z m545 18 c-5 -14 -3
-19 3 -15 6 4 8 -2 5 -14 -5 -19 -6 -20 -20 -3 -14 17 -14 17 -9 1 3 -10 1
-18 -4 -18 -6 0 -10 5 -10 12 0 6 -3 8 -7 5 -4 -4 3 -21 15 -37 24 -31 28 -50
12 -50 -5 0 -10 5 -10 10 0 6 -4 10 -9 10 -5 0 -7 -8 -4 -19 7 -26 -26 -36
-43 -14 -17 23 -17 38 0 53 8 6 12 18 9 25 -3 9 5 19 21 26 14 7 28 20 31 31
4 10 11 18 16 18 6 0 7 -9 4 -21z m65 -10 c0 -6 -4 -7 -10 -4 -5 3 -10 2 -10
-4 0 -5 4 -12 9 -15 5 -3 11 -16 14 -28 6 -21 6 -21 -13 -2 -11 10 -23 34 -26
53 -7 32 -6 33 15 22 11 -7 21 -16 21 -22z m-1318 -34 c-8 -18 -8 -25 1 -28 9
-3 9 -8 0 -18 -18 -18 -16 -40 2 -33 11 5 13 2 9 -10 -3 -9 -1 -16 5 -16 6 0
11 5 11 11 0 5 13 15 30 20 16 6 28 15 25 19 -3 5 -1 11 5 15 21 13 8 -32 -20
-69 -17 -22 -30 -33 -30 -25 0 8 5 20 12 27 9 9 9 12 1 12 -7 0 -15 -9 -18
-20 -7 -21 -25 -28 -25 -9 0 6 -7 18 -16 26 -10 10 -14 26 -11 42 3 14 1 36
-4 49 -5 14 -7 33 -4 43 6 17 8 18 22 3 12 -12 13 -20 5 -39z m1024 0 c15 -15
19 -27 13 -36 -7 -11 -9 -11 -9 -1 0 9 -7 11 -20 7 -12 -4 -20 -2 -20 5 0 6 5
8 10 5 15 -9 12 4 -5 21 -8 9 -15 25 -14 37 0 21 1 21 12 3 7 -10 22 -29 33
-41z m-936 18 c0 -22 -2 -25 -10 -13 -13 20 -13 40 0 40 6 0 10 -12 10 -27z
m580 -8 c0 -25 -16 -24 -18 1 -1 15 2 22 8 19 6 -3 10 -12 10 -20z m80 2 c0
-8 -6 -14 -14 -14 -8 0 -12 6 -9 14 3 7 9 13 14 13 5 0 9 -6 9 -13z m977 -9
c-3 -8 -6 -5 -6 6 -1 11 2 17 5 13 3 -3 4 -12 1 -19z m-342 2 c-7 -11 -45 -33
-45 -26 0 2 7 12 16 20 17 18 39 22 29 6z m-755 -31 c0 -16 -4 -28 -9 -25 -8
5 -3 56 5 56 2 0 4 -14 4 -31z m-559 7 c12 7 11 -17 -1 -36 -8 -13 -10 -13
-10 2 0 9 -2 22 -3 30 -2 7 -2 10 0 5 3 -4 9 -5 14 -1z m516 -18 c-3 -7 -5 -2
-5 12 0 14 2 19 5 13 2 -7 2 -19 0 -25z m192 -33 c2 -38 21 -72 21 -36 0 24 0
24 21 5 11 -10 16 -20 10 -22 -6 -2 -11 -8 -11 -13 0 -6 5 -7 12 -3 7 4 8 3 4
-5 -4 -6 -12 -9 -17 -6 -5 4 -9 1 -9 -6 0 -7 -8 -6 -25 5 -28 18 -45 21 -45 5
0 -5 5 -7 12 -3 7 5 8 3 3 -6 -4 -7 -2 -15 4 -19 8 -5 5 -13 -8 -25 -19 -17
-20 -17 -19 13 1 38 -10 51 -37 41 -18 -6 -17 -8 10 -23 28 -15 28 -16 7 -17
-18 0 -22 -4 -17 -19 3 -11 -1 -24 -12 -32 -15 -13 -16 -12 -11 8 5 17 2 20
-11 16 -13 -5 -12 -2 4 17 19 23 19 22 -25 -3 -34 -21 -44 -32 -43 -50 3 -21
2 -21 -9 -2 -11 19 -11 19 -19 0 -6 -16 -8 -17 -8 -3 -1 9 14 28 32 43 l32 26
-45 -23 c-45 -23 -80 -33 -80 -22 0 13 34 38 57 40 13 2 30 7 36 12 7 5 20 12
31 16 13 4 17 2 13 -8 -13 -33 19 -2 39 37 11 23 27 42 35 42 14 0 32 21 34
40 1 6 5 19 10 29 8 19 9 19 16 0 4 -10 8 -32 8 -49z m529 19 c-4 -3 -12 5
-18 18 -12 22 -12 22 6 6 10 -10 15 -20 12 -24z m-598 7 c-10 -20 -30 -37 -30
-26 0 11 25 45 33 45 4 0 3 -9 -3 -19z m437 -16 c-1 -35 -11 -47 -20 -22 -3
10 12 57 19 57 1 0 2 -16 1 -35z m-1099 13 c-2 -6 -10 -14 -16 -16 -7 -2 -10
2 -6 12 7 18 28 22 22 4z m1064 -20 c-9 -9 -12 -7 -12 12 0 19 3 21 12 12 9
-9 9 -15 0 -24z m-37 2 c-3 -5 6 -17 20 -26 14 -9 25 -26 25 -38 0 -20 -1 -20
-19 3 -27 35 -58 34 -70 -2 -6 -16 -8 -33 -5 -38 5 -8 0 -10 -38 -13 -7 -1
-16 -5 -20 -11 -4 -6 -8 -2 -8 8 0 23 -16 22 -22 -1 -4 -14 -14 -19 -41 -18
-20 1 -42 8 -49 15 -11 11 -9 12 9 7 12 -4 24 -2 28 4 3 5 15 10 26 10 10 0
19 3 19 8 0 4 4 13 9 21 8 12 12 12 25 2 13 -11 16 -11 16 2 0 9 4 19 10 22 6
4 7 -1 3 -12 -6 -16 -5 -16 10 -4 9 7 14 17 11 22 -3 5 2 9 10 9 9 0 16 6 17
13 0 10 2 10 6 0 2 -7 9 -13 15 -13 6 0 8 6 5 14 -3 8 -3 17 0 20 10 9 15 7 8
-4z m910 -10 c3 -6 -4 -10 -17 -10 -18 0 -20 2 -8 10 19 12 18 12 25 0z m-48
-16 c-3 -3 -12 -4 -19 -1 -8 3 -5 6 6 6 11 1 17 -2 13 -5z m-2488 -34 c11 -24
11 -24 -3 -6 -9 11 -16 24 -16 30 0 12 5 7 19 -24z m1711 16 c0 -3 -4 -8 -10
-11 -5 -3 -10 -1 -10 4 0 6 5 11 10 11 6 0 10 -2 10 -4z m-1077 -21 c-3 -9 -8
-14 -10 -11 -3 3 -2 9 2 15 9 16 15 13 8 -4z m577 5 c0 -5 -5 -10 -11 -10 -5
0 -7 5 -4 10 3 6 8 10 11 10 2 0 4 -4 4 -10z m430 -2 c0 -5 -4 -7 -9 -4 -5 3
-11 -1 -14 -9 -4 -10 -1 -12 11 -9 14 5 15 4 2 -5 -24 -17 -37 -13 -37 13 0
18 5 24 23 24 13 0 24 -5 24 -10z m352 -37 c35 -37 48 -71 48 -127 0 -24 4
-44 8 -44 11 0 89 82 94 100 3 10 6 8 10 -8 4 -12 3 -20 -1 -17 -5 2 -14 -13
-21 -35 -18 -55 -46 -76 -107 -83 -49 -6 -68 3 -43 18 14 9 2 103 -17 133 -24
38 -56 26 -67 -26 -8 -37 -6 -49 14 -85 l23 -42 -26 24 c-15 14 -27 30 -27 36
0 6 -7 20 -15 31 -13 17 -14 16 -3 -16 6 -19 17 -42 24 -51 17 -20 18 -32 2
-26 -7 2 -23 0 -35 -4 -14 -5 -23 -5 -23 1 0 5 -14 13 -32 18 -33 8 -51 32
-24 32 9 0 25 -5 36 -12 27 -17 34 -5 21 35 -7 19 -10 46 -7 58 3 13 7 36 10
51 4 15 16 33 27 39 15 8 19 8 15 0 -9 -14 4 -14 24 -1 11 7 11 10 2 10 -7 0
-10 5 -7 10 13 21 70 11 97 -19z m-877 9 c3 -5 1 -10 -4 -10 -6 0 -11 5 -11
10 0 6 2 10 4 10 3 0 8 -4 11 -10z m683 -28 c16 -21 15 -91 -3 -122 -15 -24
-15 -23 -12 25 4 51 -14 105 -35 105 -6 0 -3 -9 7 -20 19 -21 23 -97 7 -127
-8 -14 -12 -12 -28 13 -21 32 -64 73 -77 74 -5 0 4 -11 20 -24 43 -37 98 -116
79 -116 -9 0 -25 14 -38 30 -24 33 -44 40 -33 13 4 -10 8 -24 9 -32 3 -15 22
-22 73 -24 17 0 31 -6 30 -11 -1 -6 13 -12 32 -14 19 -2 31 1 27 6 -6 9 64 26
72 17 9 -9 -19 -33 -43 -37 -38 -8 -149 12 -162 28 -6 9 -15 16 -20 16 -17 1
-41 24 -40 38 1 8 -5 32 -13 52 -23 62 -70 63 -135 4 -21 -20 -43 -32 -48 -29
-6 3 -8 2 -4 -3 3 -5 -4 -25 -14 -44 l-19 -35 2 63 c2 34 0 62 -4 62 -5 0 -8
9 -8 20 0 11 5 20 10 20 6 0 10 -8 10 -17 0 -16 3 -15 18 3 17 21 52 37 103
48 18 4 34 -1 49 -14 24 -21 55 -19 75 4 44 51 85 61 113 28z m-733 8 c3 -5
-1 -10 -9 -10 -9 0 -16 5 -16 10 0 6 4 10 9 10 6 0 13 -4 16 -10z m1082 -12
c-3 -8 -6 -5 -6 6 -1 11 2 17 5 13 3 -3 4 -12 1 -19z m-787 2 c0 -5 -2 -10 -4
-10 -3 0 -8 5 -11 10 -3 6 -1 10 4 10 6 0 11 -4 11 -10z m304 -5 c-24 -18 -31
-19 -31 -2 0 7 12 14 26 15 24 2 24 2 5 -13z m-694 -15 c0 -5 -2 -10 -4 -10
-3 0 -8 5 -11 10 -3 6 -1 10 4 10 6 0 11 -4 11 -10z m25 0 c3 -5 1 -10 -4 -10
-6 0 -11 5 -11 10 0 6 2 10 4 10 3 0 8 -4 11 -10z m-108 -22 c-3 -8 -6 -5 -6
6 -1 11 2 17 5 13 3 -3 4 -12 1 -19z m1284 -5 c-8 -15 -10 -15 -11 -2 0 17 10
32 18 25 2 -3 -1 -13 -7 -23z m-1193 2 c1 -1 -11 -17 -28 -35 l-31 -33 11 28
c6 16 8 35 5 42 -4 11 1 13 18 7 12 -3 23 -8 25 -9z m209 -5 c-1 -20 -9 -25
-20 -13 -4 3 -2 12 4 20 15 18 18 17 16 -7z m-139 -2 c5 -7 6 -22 2 -32 -4
-14 -9 -16 -14 -8 -4 7 -16 12 -27 12 -24 0 -24 9 -1 26 22 17 27 17 40 2z
m-494 -21 c-6 -16 -34 -12 -34 5 0 6 7 8 15 4 8 -3 15 0 15 6 0 6 2 9 5 6 3
-3 3 -12 -1 -21z m546 -7 c0 -5 -4 -10 -10 -10 -5 0 -10 5 -10 10 0 6 5 10 10
10 6 0 10 -4 10 -10z m90 -10 c0 -5 -5 -10 -11 -10 -5 0 -7 5 -4 10 3 6 8 10
11 10 2 0 4 -4 4 -10z m-340 -4 c0 -3 -4 -8 -10 -11 -5 -3 -10 -1 -10 4 0 6 5
11 10 11 6 0 10 -2 10 -4z m160 -26 c0 -5 -5 -10 -11 -10 -5 0 -7 5 -4 10 3 6
8 10 11 10 2 0 4 -4 4 -10z m-150 -45 c-6 -8 -9 -18 -7 -23 3 -4 1 -14 -4 -22
-8 -11 -9 -2 -4 29 7 52 18 74 23 48 2 -10 -2 -24 -8 -32z m-56 10 c-4 -8 -8
-15 -10 -15 -2 0 -4 7 -4 15 0 8 4 15 10 15 5 0 7 -7 4 -15z m1167 -8 c-10 -9
-11 -8 -5 6 3 10 9 15 12 12 3 -3 0 -11 -7 -18z m-1731 -18 c-7 -11 -14 -18
-17 -15 -3 3 0 12 7 21 18 21 23 19 10 -6z m410 11 c0 -5 -4 -10 -10 -10 -5 0
-10 5 -10 10 0 6 5 10 10 10 6 0 10 -4 10 -10z m107 -12 c-3 -8 -6 -5 -6 6 -1
11 2 17 5 13 3 -3 4 -12 1 -19z m64 -9 c-5 -13 -10 -19 -10 -12 -1 15 10 45
15 40 3 -2 0 -15 -5 -28z m-481 11 c0 -5 -5 -10 -11 -10 -5 0 -7 5 -4 10 3 6
8 10 11 10 2 0 4 -4 4 -10z m1037 -27 c-3 -10 -5 -4 -5 12 0 17 2 24 5 18 2
-7 2 -21 0 -30z m-1187 17 c0 -5 -4 -10 -10 -10 -5 0 -10 5 -10 10 0 6 5 10
10 10 6 0 10 -4 10 -10z m545 -50 c-6 -8 -15 -22 -19 -30 -5 -9 -2 -8 7 3 20
24 30 21 21 -5 -6 -20 -5 -21 9 -10 9 8 18 21 20 30 2 9 3 4 1 -13 -2 -24 -1
-27 8 -14 9 14 13 13 33 -5 19 -16 21 -25 14 -50 -12 -42 -29 -57 -24 -20 5
32 8 37 -43 -71 -7 -16 -15 -39 -18 -50 -3 -15 -40 -75 -71 -114 -2 -2 -5 -2
-8 0 -2 3 9 25 25 49 35 52 39 71 10 45 -11 -10 -20 -23 -20 -28 0 -18 -49
-113 -65 -127 -23 -19 -20 -10 35 102 55 113 62 134 25 73 -27 -44 -34 -32 -9
16 8 17 14 33 11 35 -8 9 -23 -22 -46 -94 -12 -40 -26 -70 -31 -67 -11 7 49
188 66 198 8 4 13 18 12 30 -2 30 32 127 44 127 6 0 8 6 5 14 -3 8 -3 17 1 21
12 12 19 -30 7 -45z m-595 19 c0 -6 -4 -7 -10 -4 -5 3 -10 11 -10 16 0 6 5 7
10 4 6 -3 10 -11 10 -16z m511 0 l21 -21 -23 -52 c-34 -75 -56 -91 -29 -21 7
17 7 24 0 20 -6 -3 -10 -1 -10 5 0 6 -4 8 -10 5 -5 -3 -10 -11 -10 -16 0 -6 5
-7 11 -3 7 4 10 0 7 -11 -1 -10 -13 -20 -25 -21 -13 -2 -23 -3 -23 -1 1 19 59
137 68 137 1 0 12 -10 23 -21z m-61 2 c0 -6 -4 -13 -10 -16 -5 -3 -10 1 -10 9
0 9 5 16 10 16 6 0 10 -4 10 -9z m112 -3 c-7 -7 -12 -18 -12 -26 0 -8 -6 -28
-14 -45 -8 -18 -31 -83 -52 -145 -20 -62 -45 -123 -55 -135 -21 -25 13 81 76
243 36 92 51 120 63 120 3 0 1 -5 -6 -12z m112 -13 c-4 -8 -8 -15 -10 -15 -2
0 -4 7 -4 15 0 8 4 15 10 15 5 0 7 -7 4 -15z m-444 -10 c0 -8 -4 -15 -10 -15
-5 0 -7 7 -4 15 4 8 8 15 10 15 2 0 4 -7 4 -15z m472 -10 c-4 -25 -13 -31 -25
-19 -8 8 10 44 22 44 5 0 6 -11 3 -25z m-612 5 c0 -5 -2 -10 -4 -10 -3 0 -8 5
-11 10 -3 6 -1 10 4 10 6 0 11 -4 11 -10z m675 -10 c3 -5 1 -10 -4 -10 -6 0
-11 5 -11 10 0 6 2 10 4 10 3 0 8 -4 11 -10z m-578 -22 c-3 -8 -6 -5 -6 6 -1
11 2 17 5 13 3 -3 4 -12 1 -19z m199 6 c-3 -9 -6 -20 -6 -25 0 -5 -9 -9 -20
-9 -11 0 -20 7 -20 15 0 8 7 15 15 15 8 0 15 5 15 10 0 6 5 10 11 10 6 0 8 -7
5 -16z m37 -4 c-6 -24 -23 -37 -23 -18 0 12 18 38 26 38 1 0 0 -9 -3 -20z
m357 -33 c0 -5 -4 -5 -10 -2 -5 3 -10 14 -10 23 0 15 2 15 10 2 5 -8 10 -19
10 -23z m-73 -29 c-3 -8 -6 -5 -6 6 -1 11 2 17 5 13 3 -3 4 -12 1 -19z m-356
-31 c-6 -15 -16 -27 -22 -27 -8 0 -8 4 -1 13 7 8 7 18 2 27 -7 11 -4 17 8 21
22 8 25 -1 13 -34z m89 13 c0 -5 -2 -10 -4 -10 -3 0 -8 5 -11 10 -3 6 -1 10 4
10 6 0 11 -4 11 -10z m-461 -114 c30 -16 59 -46 44 -46 -6 0 -18 9 -28 20 -10
11 -21 17 -26 14 -13 -8 -36 37 -42 81 -6 40 -6 40 9 -8 11 -33 23 -51 43 -61z
m211 94 c0 -5 -4 -10 -10 -10 -5 0 -10 5 -10 10 0 6 5 10 10 10 6 0 10 -4 10
-10z m580 1 c0 -15 -70 -62 -82 -55 -7 5 -8 3 -3 -6 6 -9 4 -11 -5 -5 -8 5
-11 4 -7 -1 3 -6 -3 -15 -13 -22 -18 -11 -18 -10 -2 18 9 16 24 29 32 27 8 -1
15 5 15 13 0 8 6 16 13 16 6 1 17 2 23 3 5 0 7 6 4 11 -3 6 1 10 9 10 9 0 16
-4 16 -9z m-342 -40 c2 -17 -4 -66 -12 -107 -9 -42 -14 -80 -11 -85 3 -5 -1
-20 -10 -33 -13 -19 -14 -29 -6 -43 8 -15 10 -15 11 -2 0 8 7 24 16 35 15 18
15 18 9 -8 -3 -17 -1 -28 5 -28 6 0 8 -5 4 -11 -4 -8 -9 -7 -15 2 -6 11 -9 10
-15 -4 -6 -16 -8 -16 -24 3 -25 29 -30 25 -30 -20 0 -22 5 -40 10 -40 16 0 12
-37 -5 -44 -10 -4 -15 1 -15 17 0 12 -3 61 -5 110 -6 87 8 151 58 270 15 35
31 30 35 -12z m-48 14 c-7 -9 -15 -13 -19 -10 -3 3 1 10 9 15 21 14 24 12 10
-5z m90 5 c0 -5 -5 -10 -11 -10 -5 0 -7 5 -4 10 3 6 8 10 11 10 2 0 4 -4 4
-10z m352 -22 c15 -10 25 -25 22 -32 -6 -15 12 -30 35 -31 21 0 23 -18 6 -40
-14 -20 -14 -20 -15 3 0 12 -5 22 -12 22 -20 0 -48 32 -48 57 0 14 -6 23 -15
23 -8 0 -15 -4 -15 -9 0 -5 -9 -13 -20 -16 -17 -5 -18 -10 -9 -27 6 -12 9 -41
6 -64 -2 -24 -1 -44 3 -44 11 0 20 26 20 56 0 13 5 24 11 24 16 0 0 -59 -24
-92 -24 -32 -32 -36 -22 -10 5 14 4 15 -6 5 -7 -7 -16 -13 -20 -13 -12 0 3
114 15 122 8 5 7 11 -2 20 -12 12 -13 10 -16 -14 0 -6 -7 -13 -15 -16 -8 -3
-11 0 -7 7 5 8 1 8 -18 0 -14 -7 -26 -21 -28 -33 -2 -15 -10 -21 -29 -21 -24
-1 -26 1 -16 22 5 12 19 26 31 29 23 8 121 78 131 94 7 11 13 8 57 -22z m-170
0 c-7 -7 -12 -8 -12 -2 0 14 12 26 19 19 2 -3 -1 -11 -7 -17z m-552 -26 c0
-15 -2 -15 -10 -2 -13 20 -13 33 0 25 6 -3 10 -14 10 -23z m534 -7 c-4 -8 -11
-15 -16 -15 -6 0 -5 6 2 15 7 8 14 15 16 15 2 0 1 -7 -2 -15z m161 -33 c-4 -4
-13 2 -21 13 -13 17 -13 20 3 26 13 4 19 1 21 -13 2 -11 1 -23 -3 -26z m-665
-7 c-7 -8 -17 -15 -22 -15 -6 0 -5 7 2 15 7 8 17 15 22 15 6 0 5 -7 -2 -15z
m197 -7 c-3 -8 -6 -5 -6 6 -1 11 2 17 5 13 3 -3 4 -12 1 -19z m633 -14 c0 -2
-11 -4 -25 -4 -14 0 -25 4 -25 9 0 4 11 6 25 3 14 -2 25 -6 25 -8z m-880 2 c0
-2 -9 -6 -20 -9 -11 -3 -18 -1 -14 4 5 9 34 13 34 5z m427 -18 c-3 -8 -6 -5
-6 6 -1 11 2 17 5 13 3 -3 4 -12 1 -19z m198 -8 c1 -13 -1 -39 -5 -57 -5 -18
-4 -36 1 -39 5 -3 9 0 9 5 0 6 6 11 13 11 17 -1 -52 -57 -85 -69 -23 -8 -26
-7 -25 8 1 13 7 17 22 14 20 -4 20 -4 0 8 -11 6 -21 13 -23 14 -2 2 6 18 17
36 12 19 21 42 21 51 0 20 28 50 43 45 6 -2 11 -14 12 -27z m120 -25 c-10 -19
-21 -35 -26 -35 -13 0 -11 8 13 52 27 47 37 34 13 -17z m-625 -18 c0 -6 -11 2
-25 17 -14 15 -25 30 -25 33 0 4 11 -4 25 -17 14 -13 25 -28 25 -33z m428 2
c2 -9 -18 -39 -43 -65 -35 -38 -48 -46 -54 -35 -10 16 -31 6 -31 -15 0 -23 49
-17 70 9 10 12 21 19 25 16 10 -10 -38 -54 -76 -69 -19 -8 -37 -19 -41 -24 -4
-6 -12 -11 -18 -11 -6 0 -15 -7 -20 -15 -18 -28 -10 7 11 46 11 22 18 29 15
16 -2 -12 -1 -20 4 -17 12 7 19 45 9 45 -19 0 -7 18 48 79 57 62 94 77 101 40z
m292 7 c0 -3 -4 -8 -10 -11 -5 -3 -10 -1 -10 4 0 6 5 11 10 11 6 0 10 -2 10
-4z m-465 -26 c3 -5 1 -10 -5 -10 -7 0 -10 -7 -7 -14 4 -10 1 -13 -7 -10 -8 3
-12 14 -9 25 6 21 18 25 28 9z m-195 -89 c-1 -10 -6 -7 -15 9 -19 33 -18 50 0
26 8 -11 15 -27 15 -35z m488 20 c-7 -12 -28 -24 -48 -27 -19 -4 -42 -12 -50
-19 -8 -7 -30 -16 -47 -20 -28 -5 -32 -4 -27 9 3 9 15 16 26 16 17 0 44 12
138 60 21 11 23 5 8 -19z m72 10 c0 -5 -7 -14 -15 -21 -16 -14 -18 -10 -9 14
6 17 24 22 24 7z m-46 -70 c-16 -16 -31 -25 -34 -20 -8 12 -76 -24 -72 -39 1
-7 -2 -12 -8 -12 -5 0 -7 -7 -4 -15 5 -13 11 -12 40 6 18 11 38 18 43 15 5 -4
16 3 24 15 9 12 18 16 21 10 8 -13 -34 -53 -50 -47 -6 2 -26 -4 -43 -15 -34
-21 -56 -25 -46 -9 3 6 2 10 -4 10 -5 0 -13 -4 -16 -10 -3 -5 -11 -10 -17 -10
-6 0 -3 9 6 19 10 11 13 22 8 25 -6 3 -12 0 -15 -8 -8 -19 -89 -45 -122 -38
-20 3 -26 2 -21 -7 5 -8 29 -10 72 -8 51 4 62 2 54 -8 -7 -8 -31 -12 -68 -10
-31 1 -63 -2 -69 -8 -7 -5 -21 -6 -30 -2 -17 6 -17 7 0 16 9 6 15 15 12 20 -4
5 -11 7 -16 4 -5 -4 -9 -1 -9 4 0 6 20 11 46 11 25 0 43 4 40 9 -3 4 6 13 21
20 35 16 21 27 -16 11 -17 -6 -36 -10 -43 -7 -16 6 35 27 82 34 27 3 31 2 20
-6 -13 -9 -13 -11 3 -11 9 0 17 7 17 15 0 8 7 15 16 15 14 0 14 -3 4 -15 -14
-16 -3 -20 19 -6 7 5 11 13 7 19 -7 12 49 37 63 28 6 -4 20 -2 31 4 15 8 20 8
20 -2 0 -6 9 -2 20 10 12 12 26 22 32 22 6 0 -2 -13 -18 -29z m-489 10 c3 -5
1 -12 -5 -16 -5 -3 -10 1 -10 9 0 18 6 21 15 7z m422 3 c-3 -3 -12 -4 -19 -1
-8 3 -5 6 6 6 11 1 17 -2 13 -5z m-281 -41 c-8 -15 -15 -22 -16 -15 0 17 20
55 27 49 2 -3 -2 -18 -11 -34z m-32 -18 c-4 -8 -8 -15 -10 -15 -2 0 -4 7 -4
15 0 8 4 15 10 15 5 0 7 -7 4 -15z m16 -25 c0 -5 -5 -10 -11 -10 -5 0 -7 5 -4
10 3 6 8 10 11 10 2 0 4 -4 4 -10z m400 -4 c0 -2 -8 -10 -17 -17 -16 -13 -17
-12 -4 4 13 16 21 21 21 13z m45 -56 c-3 -5 -11 -10 -16 -10 -6 0 -7 5 -4 10
3 6 11 10 16 10 6 0 7 -4 4 -10z m-461 -16 c3 -8 2 -12 -3 -9 -5 3 -12 1 -16
-5 -12 -20 -26 -10 -15 10 13 24 26 26 34 4z m196 -38 c0 -2 -9 -6 -20 -9 -11
-3 -18 -1 -14 4 5 9 34 13 34 5z m40 -50 c0 -2 -9 -6 -20 -9 -11 -3 -18 -1
-14 4 5 9 34 13 34 5z m-738 -568 c-7 -7 -12 -8 -12 -2 0 6 3 14 7 17 3 4 9 5
12 2 2 -3 -1 -11 -7 -17z m688 -298 c0 -5 -7 -7 -15 -4 -8 4 -15 8 -15 10 0 2
7 4 15 4 8 0 15 -4 15 -10z m-906 -54 c-9 -15 -19 -25 -21 -22 -3 2 3 16 13
30 9 15 19 25 21 22 3 -2 -3 -16 -13 -30z m954 -92 c-4 -3 -12 5 -18 18 -12
22 -12 22 6 6 10 -10 15 -20 12 -24z m-883 -54 c3 -5 1 -10 -4 -10 -6 0 -11 5
-11 10 0 6 2 10 4 10 3 0 8 -4 11 -10z m725 0 c0 -5 -4 -10 -10 -10 -5 0 -10
5 -10 10 0 6 5 10 10 10 6 0 10 -4 10 -10z m141 -12 c11 -21 11 -22 -4 -9 -10
7 -17 17 -17 22 0 15 9 10 21 -13z m-628 -22 c4 -10 1 -13 -8 -9 -8 3 -12 9
-9 14 7 12 11 11 17 -5z m892 -34 c-3 -3 -16 5 -28 17 l-22 23 28 -17 c15 -10
25 -20 22 -23z m-428 -24 c-3 -8 -6 -5 -6 6 -1 11 2 17 5 13 3 -3 4 -12 1 -19z
m190 -130 c-3 -8 -6 -5 -6 6 -1 11 2 17 5 13 3 -3 4 -12 1 -19z m411 -23 c-3
-3 -9 2 -12 12 -6 14 -5 15 5 6 7 -7 10 -15 7 -18z m-418 -19 c0 -3 -4 -8 -10
-11 -5 -3 -10 -1 -10 4 0 6 5 11 10 11 6 0 10 -2 10 -4z m-273 -48 c-3 -8 -6
-5 -6 6 -1 11 2 17 5 13 3 -3 4 -12 1 -19z m227 -13 c3 -8 1 -15 -3 -15 -5 0
-11 7 -15 15 -3 8 -1 15 3 15 5 0 11 -7 15 -15z"/>
<path d="M2460 5911 c0 -5 -3 -18 -6 -28 -5 -16 -4 -16 10 1 18 23 20 36 6 36
-5 0 -10 -4 -10 -9z"/>
<path d="M1712 5820 c0 -14 2 -19 5 -12 2 6 2 18 0 25 -3 6 -5 1 -5 -13z"/>
<path d="M1820 5835 c0 -4 11 -18 25 -31 14 -13 25 -20 25 -15 0 4 -11 18 -25
31 -14 13 -25 20 -25 15z"/>
<path d="M1771 5815 c0 -11 4 -27 9 -35 9 -13 10 -13 9 0 0 8 -4 24 -9 35 l-9
20 0 -20z"/>
<path d="M1800 5819 c0 -13 30 -77 42 -91 8 -7 22 -32 32 -56 22 -49 34 -50
13 -1 -7 19 -12 40 -9 47 2 7 -2 11 -9 10 -7 -2 -25 20 -41 47 -15 28 -28 47
-28 44z"/>
<path d="M1793 5685 c0 -22 2 -30 4 -17 2 12 2 30 0 40 -3 9 -5 -1 -4 -23z"/>
<path d="M1701 5694 c0 -11 3 -14 6 -6 3 7 2 16 -1 19 -3 4 -6 -2 -5 -13z"/>
<path d="M1821 5694 c0 -11 3 -14 6 -6 3 7 2 16 -1 19 -3 4 -6 -2 -5 -13z"/>
<path d="M1692 5615 c0 -16 2 -22 5 -12 2 9 2 23 0 30 -3 6 -5 -1 -5 -18z"/>
<path d="M1722 5620 c0 -14 2 -19 5 -12 2 6 2 18 0 25 -3 6 -5 1 -5 -13z"/>
<path d="M1802 5560 c0 -14 2 -19 5 -12 2 6 2 18 0 25 -3 6 -5 1 -5 -13z"/>
<path d="M2213 5499 c-7 -18 -11 -34 -9 -37 7 -7 27 39 24 55 -2 9 -8 2 -15
-18z"/>
<path d="M2371 5474 c0 -11 3 -14 6 -6 3 7 2 16 -1 19 -3 4 -6 -2 -5 -13z"/>
<path d="M1671 5424 c0 -11 3 -14 6 -6 3 7 2 16 -1 19 -3 4 -6 -2 -5 -13z"/>
<path d="M2166 5393 c-6 -14 -5 -15 5 -6 7 7 10 15 7 18 -3 3 -9 -2 -12 -12z"/>
<path d="M2341 5374 c0 -11 3 -14 6 -6 3 7 2 16 -1 19 -3 4 -6 -2 -5 -13z"/>
<path d="M2036 5345 c-4 -16 -15 -39 -24 -49 -14 -15 -14 -18 -2 -14 19 6 43
53 38 76 -3 11 -6 7 -12 -13z"/>
<path d="M2332 5320 c0 -14 2 -19 5 -12 2 6 2 18 0 25 -3 6 -5 1 -5 -13z"/>
<path d="M1752 5290 c0 -14 2 -19 5 -12 2 6 2 18 0 25 -3 6 -5 1 -5 -13z"/>
<path d="M1661 5284 c0 -11 3 -14 6 -6 3 7 2 16 -1 19 -3 4 -6 -2 -5 -13z"/>
<path d="M2316 5265 c-3 -9 -6 -22 -5 -28 0 -7 5 -1 10 12 5 13 8 26 5 28 -2
2 -6 -3 -10 -12z"/>
<path d="M2301 5204 c0 -11 3 -14 6 -6 3 7 2 16 -1 19 -3 4 -6 -2 -5 -13z"/>
<path d="M1925 5173 c-8 -20 -13 -38 -10 -41 3 -3 5 -3 5 0 0 3 7 22 15 42 8
20 13 36 10 36 -2 0 -12 -16 -20 -37z"/>
<path d="M1753 5120 c0 -30 2 -43 4 -27 2 15 2 39 0 55 -2 15 -4 2 -4 -28z"/>
<path d="M2286 5153 c-6 -14 -5 -15 5 -6 7 7 10 15 7 18 -3 3 -9 -2 -12 -12z"/>
<path d="M1652 5149 c-1 -9 -5 -32 -8 -50 -4 -28 -3 -31 6 -16 6 9 9 32 7 50
-2 17 -5 25 -5 16z"/>
<path d="M1901 5104 c0 -11 3 -14 6 -6 3 7 2 16 -1 19 -3 4 -6 -2 -5 -13z"/>
<path d="M2272 5060 c0 -14 2 -19 5 -12 2 6 2 18 0 25 -3 6 -5 1 -5 -13z"/>
<path d="M1876 5053 c-6 -14 -5 -15 5 -6 7 7 10 15 7 18 -3 3 -9 -2 -12 -12z"/>
<path d="M1643 5020 c0 -25 2 -35 4 -22 2 12 2 32 0 45 -2 12 -4 2 -4 -23z"/>
<path d="M1641 4954 c0 -11 3 -14 6 -6 3 7 2 16 -1 19 -3 4 -6 -2 -5 -13z"/>
<path d="M1841 4914 c0 -11 3 -14 6 -6 3 7 2 16 -1 19 -3 4 -6 -2 -5 -13z"/>
<path d="M2270 4879 c0 -5 5 -7 10 -4 6 3 10 8 10 11 0 2 -4 4 -10 4 -5 0 -10
-5 -10 -11z"/>
<path d="M1762 4850 c0 -14 2 -19 5 -12 2 6 2 18 0 25 -3 6 -5 1 -5 -13z"/>
<path d="M1657 4751 c-4 -17 -3 -21 5 -13 5 5 8 16 6 23 -3 8 -7 3 -11 -10z"/>
<path d="M1772 4730 c0 -19 2 -27 5 -17 2 9 2 25 0 35 -3 9 -5 1 -5 -18z"/>
<path d="M2277 4743 c-10 -9 -9 -41 1 -47 5 -3 9 8 9 24 0 33 -1 33 -10 23z"/>
<path d="M1661 4664 c0 -11 3 -14 6 -6 3 7 2 16 -1 19 -3 4 -6 -2 -5 -13z"/>
<path d="M2272 4655 c0 -16 2 -22 5 -12 2 9 2 23 0 30 -3 6 -5 -1 -5 -18z"/>
<path d="M2330 4616 c0 -7 14 -69 31 -137 18 -68 31 -133 31 -144 -1 -16 1
-17 7 -5 14 25 22 88 12 94 -5 3 -9 35 -9 71 0 45 -5 70 -16 81 -9 8 -21 24
-26 35 -12 22 -30 25 -30 5z"/>
<path d="M2245 4600 c3 -5 8 -10 11 -10 2 0 4 5 4 10 0 6 -5 10 -11 10 -5 0
-7 -4 -4 -10z"/>
<path d="M2241 4568 c0 -9 -4 -25 -7 -35 -5 -17 -5 -17 6 0 6 10 9 25 7 35 -4
15 -5 15 -6 0z"/>
<path d="M1792 4540 c0 -14 2 -19 5 -12 2 6 2 18 0 25 -3 6 -5 1 -5 -13z"/>
<path d="M1842 4500 c0 -14 2 -19 5 -12 2 6 2 18 0 25 -3 6 -5 1 -5 -13z"/>
<path d="M1801 4494 c0 -11 3 -14 6 -6 3 7 2 16 -1 19 -3 4 -6 -2 -5 -13z"/>
<path d="M2231 4474 c0 -11 3 -14 6 -6 3 7 2 16 -1 19 -3 4 -6 -2 -5 -13z"/>
<path d="M2440 4427 c0 -23 4 -36 10 -32 13 8 13 35 0 55 -7 11 -10 5 -10 -23z"/>
<path d="M2483 4420 c0 -25 2 -35 4 -22 2 12 2 32 0 45 -2 12 -4 2 -4 -23z"/>
<path d="M1811 4424 c0 -11 3 -14 6 -6 3 7 2 16 -1 19 -3 4 -6 -2 -5 -13z"/>
<path d="M2221 4404 c0 -11 3 -14 6 -6 3 7 2 16 -1 19 -3 4 -6 -2 -5 -13z"/>
<path d="M2292 4395 c0 -16 2 -22 5 -12 2 9 2 23 0 30 -3 6 -5 -1 -5 -18z"/>
<path d="M2441 4354 c0 -11 3 -14 6 -6 3 7 2 16 -1 19 -3 4 -6 -2 -5 -13z"/>
<path d="M2470 4334 c0 -20 -4 -33 -10 -29 -6 3 -7 -1 -4 -9 12 -31 24 -15 24
29 0 25 -2 45 -5 45 -3 0 -5 -16 -5 -36z"/>
<path d="M1740 4345 c0 -5 5 -17 10 -25 5 -8 10 -10 10 -5 0 6 -5 17 -10 25
-5 8 -10 11 -10 5z"/>
<path d="M2202 4255 c0 -16 2 -22 5 -12 2 9 2 23 0 30 -3 6 -5 -1 -5 -18z"/>
<path d="M2172 4175 c0 -16 2 -22 5 -12 2 9 2 23 0 30 -3 6 -5 -1 -5 -18z"/>
<path d="M2281 4174 c0 -11 3 -14 6 -6 3 7 2 16 -1 19 -3 4 -6 -2 -5 -13z"/>
<path d="M1826 4167 c3 -10 9 -15 12 -12 3 3 0 11 -7 18 -10 9 -11 8 -5 -6z"/>
<path d="M2430 4114 c0 -10 5 -26 10 -34 8 -11 9 -7 4 15 -8 37 -14 45 -14 19z"/>
<path d="M2251 4044 c0 -11 3 -14 6 -6 3 7 2 16 -1 19 -3 4 -6 -2 -5 -13z"/>
<path d="M1925 3933 c16 -38 25 -52 25 -39 0 12 -29 76 -35 76 -3 0 2 -17 10
-37z"/>
<path d="M1970 3956 c0 -2 8 -10 18 -17 15 -13 16 -12 3 4 -13 16 -21 21 -21
13z"/>
<path d="M2421 3934 c0 -11 3 -14 6 -6 3 7 2 16 -1 19 -3 4 -6 -2 -5 -13z"/>
<path d="M2100 3907 c0 -3 19 -24 43 -48 23 -24 48 -53 55 -64 11 -17 11 -17
1 5 -17 38 -57 88 -79 100 -11 6 -20 9 -20 7z"/>
<path d="M2056 3820 c7 -28 12 -35 18 -29 2 2 -2 15 -10 29 l-15 25 7 -25z"/>
<path d="M2145 3823 c5 -19 3 -22 -11 -16 -9 3 -15 2 -12 -3 3 -5 8 -18 13
-29 7 -18 8 -17 16 9 5 18 4 36 -2 45 -8 13 -9 11 -4 -6z"/>
<path d="M2321 3774 c0 -11 3 -14 6 -6 3 7 2 16 -1 19 -3 4 -6 -2 -5 -13z"/>
<path d="M2210 3767 c0 -13 52 -108 57 -103 2 2 -9 28 -26 58 -17 29 -31 50
-31 45z"/>
<path d="M2311 3724 c0 -11 3 -14 6 -6 3 7 2 16 -1 19 -3 4 -6 -2 -5 -13z"/>
<path d="M2131 3634 c0 -11 3 -14 6 -6 3 7 2 16 -1 19 -3 4 -6 -2 -5 -13z"/>
<path d="M2160 3643 c0 -5 10 -18 23 -29 l22 -19 -20 25 c-11 14 -21 27 -22
29 -2 2 -3 0 -3 -6z"/>
<path d="M2270 3641 c0 -6 4 -13 10 -16 6 -3 7 1 4 9 -7 18 -14 21 -14 7z"/>
<path d="M2126 3596 c3 -9 10 -16 14 -16 4 0 32 -34 61 -75 30 -41 58 -74 62
-75 9 0 -103 149 -127 169 -14 12 -16 12 -10 -3z"/>
<path d="M2290 3609 c0 -4 7 -22 15 -40 8 -19 14 -27 14 -19 0 14 -28 72 -29
59z"/>
<path d="M2563 3493 c-7 -15 -11 -28 -9 -31 6 -6 28 38 24 48 -2 5 -9 -3 -15
-17z"/>
<path d="M2601 3484 c0 -11 3 -14 6 -6 3 7 2 16 -1 19 -3 4 -6 -2 -5 -13z"/>
<path d="M2305 3460 c10 -11 20 -20 23 -20 3 0 -3 9 -13 20 -10 11 -20 20 -23
20 -3 0 3 -9 13 -20z"/>
<path d="M2678 3442 c3 -20 8 -42 13 -48 4 -5 11 -29 13 -52 8 -61 -22 -122
-82 -169 -28 -21 -55 -48 -61 -61 -8 -16 1 -11 31 17 23 22 44 38 49 36 4 -3
14 6 23 20 17 26 42 35 33 12 -3 -8 3 -13 14 -13 23 0 25 14 4 22 -15 6 -20
40 -9 68 5 14 9 14 22 4 13 -11 14 -10 8 10 -5 15 -2 32 8 47 14 21 14 24 1
19 -10 -4 -14 -1 -12 7 2 8 2 11 0 7 -9 -15 -23 -8 -23 12 0 11 5 20 10 20 6
0 10 4 10 10 0 5 -7 7 -15 4 -11 -5 -15 1 -15 19 0 13 -6 29 -13 35 -10 9 -12
3 -9 -26z m52 -112 c0 -5 -5 -10 -11 -10 -5 0 -7 5 -4 10 3 6 8 10 11 10 2 0
4 -4 4 -10z"/>
<path d="M2641 3424 c0 -11 3 -14 6 -6 3 7 2 16 -1 19 -3 4 -6 -2 -5 -13z"/>
<path d="M2375 3378 c-8 -28 -15 -65 -14 -82 1 -21 5 -12 13 29 7 33 16 70 20
83 4 12 5 22 2 22 -3 0 -12 -23 -21 -52z"/>
<path d="M2786 3366 c3 -8 1 -17 -5 -21 -26 -15 -9 -85 20 -85 19 0 19 1 -1
22 -26 28 -26 57 2 67 l22 8 -22 12 c-18 9 -21 9 -16 -3z"/>
<path d="M2641 3344 c0 -11 3 -14 6 -6 3 7 2 16 -1 19 -3 4 -6 -2 -5 -13z"/>
<path d="M2438 3303 c-17 -30 -33 -142 -17 -126 5 5 10 27 11 48 2 22 6 42 9
45 6 5 21 60 16 60 -1 0 -10 -12 -19 -27z"/>
<path d="M2571 3304 c0 -11 3 -14 6 -6 3 7 2 16 -1 19 -3 4 -6 -2 -5 -13z"/>
<path d="M2481 3224 c-6 -21 -9 -40 -6 -42 2 -2 8 13 14 34 6 21 9 40 6 42 -2
2 -8 -13 -14 -34z"/>
<path d="M2731 3227 c15 -33 20 -33 45 -5 16 19 16 20 1 9 -15 -12 -20 -11
-38 5 -21 19 -21 18 -8 -9z"/>
<path d="M2560 3171 c0 -5 -9 -12 -19 -16 -24 -7 -36 -35 -13 -28 20 5 58 53
42 53 -5 0 -10 -4 -10 -9z"/>
<path d="M2705 3149 c-4 -6 -13 -8 -21 -5 -8 3 -14 1 -14 -5 0 -6 -6 -9 -12
-6 -8 3 -13 -4 -13 -18 0 -13 2 -22 5 -20 3 2 12 -10 19 -27 10 -22 16 -27 22
-17 5 8 4 15 -2 17 -6 3 -6 8 1 17 8 9 6 14 -5 19 -23 8 -18 23 10 30 14 4 25
11 25 16 0 13 -7 13 -15 -1z"/>
<path d="M2621 3114 c0 -11 3 -14 6 -6 3 7 2 16 -1 19 -3 4 -6 -2 -5 -13z"/>
<path d="M2610 3073 c0 -5 9 -23 20 -41 21 -34 50 -40 57 -12 4 11 2 12 -5 2
-10 -15 -38 -7 -46 13 -3 8 -1 17 5 20 5 4 7 11 4 16 -7 11 -35 12 -35 2z"/>
<path d="M2713 3046 c1 -11 9 -21 17 -23 10 -3 11 -2 4 4 -6 4 -14 15 -17 23
-5 11 -6 9 -4 -4z"/>
<path d="M2686 2965 c4 -8 8 -15 10 -15 2 0 4 7 4 15 0 8 -4 15 -10 15 -5 0
-7 -7 -4 -15z"/>
<path d="M5808 5313 c6 -2 18 -2 25 0 6 3 1 5 -13 5 -14 0 -19 -2 -12 -5z"/>
<path d="M5870 5307 c0 -2 15 -16 33 -33 l32 -29 -29 33 c-28 30 -36 37 -36
29z"/>
<path d="M5970 5269 c0 -4 7 -23 15 -42 8 -20 16 -67 16 -104 1 -64 2 -66 9
-23 8 48 -2 107 -25 149 -8 14 -14 23 -15 20z"/>
<path d="M5931 5235 c0 -5 6 -21 14 -35 8 -14 14 -20 14 -15 0 6 -6 21 -14 35
-8 14 -14 21 -14 15z"/>
<path d="M5963 5125 c0 -27 2 -38 4 -22 2 15 2 37 0 50 -2 12 -4 0 -4 -28z"/>
<path d="M5973 5014 c-3 -8 -33 -33 -66 -55 -34 -21 -56 -39 -50 -39 17 0 104
63 121 88 8 12 11 22 8 22 -4 0 -9 -7 -13 -16z"/>
<path d="M5770 4898 c0 -13 51 -21 63 -9 12 12 9 13 -35 15 -16 1 -28 -2 -28
-6z"/>
<path d="M5390 4950 c0 -12 17 -12 45 0 17 7 15 9 -12 9 -18 1 -33 -3 -33 -9z"/>
<path d="M5420 4650 c-23 -7 -23 -8 -3 -9 12 -1 25 4 28 9 3 6 5 10 3 9 -2 -1
-14 -5 -28 -9z"/>
<path d="M3906 4494 c-8 -22 -7 -74 2 -74 4 0 7 20 8 45 1 49 -1 53 -10 29z"/>
<path d="M3946 4484 c-4 -9 -4 -19 -1 -22 2 -3 7 3 11 12 4 9 4 19 1 22 -2 3
-7 -3 -11 -12z"/>
<path d="M3999 4373 c-13 -16 -12 -17 4 -4 16 13 21 21 13 21 -2 0 -10 -8 -17
-17z"/>
<path d="M3933 4316 c-49 -37 -88 -84 -78 -94 4 -4 24 13 45 37 25 28 42 41
50 36 9 -5 11 -4 6 3 -4 7 -1 12 7 12 22 0 41 26 24 33 -7 3 -32 -9 -54 -27z"/>
<path d="M4235 4330 c-3 -5 -1 -10 4 -10 6 0 11 5 11 10 0 6 -2 10 -4 10 -3 0
-8 -4 -11 -10z"/>
<path d="M3313 4281 c1 -19 7 -36 14 -38 7 -3 9 3 6 16 -3 12 -1 21 6 21 6 0
11 7 11 16 0 13 -3 14 -14 5 -11 -9 -15 -9 -20 1 -3 7 -4 -2 -3 -21z"/>
<path d="M4114 4238 l-19 -23 23 19 c12 11 22 21 22 23 0 8 -8 2 -26 -19z"/>
<path d="M3853 4188 c-11 -13 -24 -30 -28 -38 -8 -16 -6 -14 34 33 14 15 22
27 19 27 -2 0 -14 -10 -25 -22z"/>
<path d="M3370 4165 c0 -5 5 -17 10 -25 5 -8 10 -10 10 -5 0 6 -5 17 -10 25
-5 8 -10 11 -10 5z"/>
<path d="M4044 4148 l-19 -23 23 19 c12 11 22 21 22 23 0 8 -8 2 -26 -19z"/>
<path d="M3500 4141 c0 -6 4 -13 10 -16 6 -3 7 1 4 9 -7 18 -14 21 -14 7z"/>
<path d="M3739 4103 c-13 -16 -12 -17 4 -4 16 13 21 21 13 21 -2 0 -10 -8 -17
-17z"/>
<path d="M4050 4090 c-19 -11 -44 -20 -55 -20 -11 -1 -14 -4 -8 -7 16 -6 103
26 103 38 0 11 1 12 -40 -11z"/>
<path d="M3913 4027 c-10 -12 -11 -17 -3 -10 8 6 24 13 35 15 17 3 18 5 3 10
-10 4 -23 -1 -35 -15z"/>
<path d="M3789 4013 c-13 -16 -12 -17 4 -4 9 7 17 15 17 17 0 8 -8 3 -21 -13z"/>
<path d="M3978 4023 c6 -2 18 -2 25 0 6 3 1 5 -13 5 -14 0 -19 -2 -12 -5z"/>
<path d="M3608 3958 c-31 -41 -41 -58 -34 -58 3 0 19 20 36 45 36 52 34 61 -2
13z"/>
<path d="M3372 3865 c0 -16 2 -22 5 -12 2 9 2 23 0 30 -3 6 -5 -1 -5 -18z"/>
<path d="M3453 3763 c-1 -24 -1 -25 7 -8 11 26 12 35 2 35 -4 0 -8 -12 -9 -27z"/>
<path d="M3381 3734 c0 -11 3 -14 6 -6 3 7 2 16 -1 19 -3 4 -6 -2 -5 -13z"/>
<path d="M2899 4363 c-13 -16 -12 -17 4 -4 16 13 21 21 13 21 -2 0 -10 -8 -17
-17z"/>
<path d="M2927 4343 c-4 -3 -7 -11 -7 -17 0 -6 5 -5 12 2 6 6 9 14 7 17 -3 3
-9 2 -12 -2z"/>
<path d="M2782 4115 c-14 -18 -22 -22 -26 -13 -3 7 -4 4 -1 -8 4 -14 -5 -34
-25 -59 -17 -21 -29 -44 -26 -52 3 -7 1 -15 -4 -18 -6 -4 -10 -18 -9 -33 1
-27 1 -26 15 7 8 18 18 31 21 28 3 -4 -3 -24 -14 -47 -11 -22 -17 -40 -13 -40
4 0 15 19 26 43 10 23 23 46 29 50 6 4 1 7 -10 5 -29 -4 -21 24 25 100 41 65
46 80 12 37z"/>
<path d="M2726 4113 c-6 -14 -5 -15 5 -6 7 7 10 15 7 18 -3 3 -9 -2 -12 -12z"/>
<path d="M2690 4070 c-6 -11 -9 -20 -8 -20 2 0 11 9 21 20 9 11 13 20 7 20 -5
0 -14 -9 -20 -20z"/>
<path d="M2679 4004 c-12 -25 -19 -47 -17 -50 2 -2 14 19 25 46 12 28 19 50
17 50 -3 0 -14 -21 -25 -46z"/>
<path d="M4924 4413 c-28 -29 -50 -43 -68 -43 -16 0 -26 -5 -26 -15 0 -8 5
-15 10 -15 6 0 10 6 10 13 0 8 4 7 10 -3 9 -13 12 -13 24 3 7 9 17 17 21 17 5
0 -2 -11 -15 -25 -25 -27 -21 -32 12 -14 16 9 76 119 66 123 -2 0 -22 -18 -44
-41z"/>
<path d="M4730 4383 c0 -16 36 -53 52 -53 7 0 3 7 -9 15 -13 9 -27 23 -32 33
-6 10 -11 12 -11 5z"/>
<path d="M4764 4373 c4 -4 19 -9 34 -10 21 -3 24 -1 12 7 -17 11 -57 14 -46 3z"/>
<path d="M2641 4174 c0 -11 3 -14 6 -6 3 7 2 16 -1 19 -3 4 -6 -2 -5 -13z"/>
<path d="M2559 4308 c-2 -62 -1 -61 -17 -114 -7 -23 -9 -50 -5 -60 6 -14 10
-6 15 31 16 101 23 195 16 195 -5 0 -9 -24 -9 -52z"/>
<path d="M2532 4090 c0 -14 2 -19 5 -12 2 6 2 18 0 25 -3 6 -5 1 -5 -13z"/>
<path d="M2552 4005 c0 -16 2 -22 5 -12 2 9 2 23 0 30 -3 6 -5 -1 -5 -18z"/>
<path d="M2521 3984 c0 -11 3 -14 6 -6 3 7 2 16 -1 19 -3 4 -6 -2 -5 -13z"/>
<path d="M5235 4486 c-16 -8 -39 -21 -50 -30 -29 -22 1 -20 33 3 15 10 40 21
56 25 23 6 27 4 23 -8 -5 -12 0 -16 21 -15 18 1 21 3 9 6 -11 3 -16 11 -13 19
7 18 -38 18 -79 0z"/>
<path d="M5365 4463 c6 -5 23 -19 40 -33 l29 -25 -15 24 c-8 13 -26 28 -40 33
-13 5 -19 5 -14 1z"/>
<path d="M5363 4418 c-2 -16 1 -18 10 -9 7 7 8 14 1 21 -6 6 -10 2 -11 -12z"/>
<path d="M5371 4364 c0 -11 3 -14 6 -6 3 7 2 16 -1 19 -3 4 -6 -2 -5 -13z"/>
<path d="M5080 4237 c0 -2 15 -16 33 -33 l32 -29 -29 33 c-28 30 -36 37 -36
29z"/>
<path d="M4525 4308 c-4 -10 -4 -26 0 -35 8 -17 8 -17 12 0 3 9 3 25 0 35 -4
16 -4 16 -12 0z"/>
<path d="M4551 4277 c2 -18 0 -38 -5 -45 -14 -23 12 -12 45 19 32 30 33 32 14
45 -10 8 -27 14 -38 14 -15 0 -18 -6 -16 -33z"/>
<path d="M4232 4035 c-14 -31 -16 -63 -3 -49 8 9 24 74 17 74 -1 0 -8 -11 -14
-25z"/>
<path d="M4370 3940 c-6 -11 -8 -20 -6 -20 3 0 10 9 16 20 6 11 8 20 6 20 -3
0 -10 -9 -16 -20z"/>
<path d="M4356 3893 c-6 -14 -5 -15 5 -6 7 7 10 15 7 18 -3 3 -9 -2 -12 -12z"/>
<path d="M4080 3715 c-20 -24 -6 -28 15 -5 10 11 13 20 8 20 -6 0 -16 -7 -23
-15z"/>
<path d="M4840 4226 c0 -2 8 -10 18 -17 15 -13 16 -12 3 4 -13 16 -21 21 -21
13z"/>
<path d="M4690 4014 c0 -11 56 -63 70 -64 32 -4 46 2 65 28 l20 27 -29 -22
c-38 -31 -73 -30 -88 1 -9 22 -38 44 -38 30z"/>
<path d="M4798 3918 c5 -22 18 -23 26 -2 8 21 9 20 -13 20 -12 0 -17 -6 -13
-18z"/>
<path d="M4460 3810 c-18 -23 -30 -43 -27 -46 4 -5 43 42 61 74 15 25 -3 11
-34 -28z"/>
<path d="M4567 3779 c7 -7 15 -10 18 -7 3 3 -2 9 -12 12 -14 6 -15 5 -6 -5z"/>
<path d="M4404 3729 c-19 -22 -19 -22 4 -10 12 6 22 16 22 21 0 15 -5 12 -26
-11z"/>
<path d="M4540 3706 c0 -2 7 -7 16 -10 8 -3 12 -2 9 4 -6 10 -25 14 -25 6z"/>
<path d="M4761 3670 c-1 -8 -4 -26 -7 -40 -5 -22 -4 -23 6 -7 6 10 9 28 7 40
-2 12 -5 15 -6 7z"/>
<path d="M4280 3570 c-12 -23 -17 -39 -11 -35 15 8 44 65 37 72 -2 3 -14 -14
-26 -37z"/>
<path d="M4717 3545 c-24 -50 -20 -58 4 -12 11 22 19 41 17 43 -3 2 -12 -12
-21 -31z"/>
<path d="M4276 3509 c-13 -32 -14 -32 -16 -9 l-1 25 -15 -28 c-9 -16 -13 -31
-10 -35 3 -3 6 0 6 7 0 8 7 10 19 6 14 -4 21 2 31 25 18 42 5 50 -14 9z"/>
<path d="M4305 3500 c-8 -13 3 -30 20 -30 20 0 30 21 14 31 -18 11 -26 11 -34
-1z"/>
<path d="M4308 3453 c6 -2 18 -2 25 0 6 3 1 5 -13 5 -14 0 -19 -2 -12 -5z"/>
<path d="M4420 3428 c12 -21 23 -38 25 -38 10 0 -10 41 -27 57 -19 17 -19 15
2 -19z"/>
<path d="M4489 3422 c-11 -2 -14 -11 -11 -32 5 -36 12 -37 39 -7 42 46 37 53
-28 39z"/>
<path d="M4303 3413 c9 -2 25 -2 35 0 9 3 1 5 -18 5 -19 0 -27 -2 -17 -5z"/>
<path d="M4212 3371 c-12 -21 -22 -43 -22 -47 0 -5 12 11 25 35 14 24 24 45
22 47 -2 2 -13 -14 -25 -35z"/>
<path d="M4785 3319 c-4 -6 -5 -12 -2 -15 2 -3 7 2 10 11 7 17 1 20 -8 4z"/>
<path d="M4689 3303 c-13 -16 -12 -17 4 -4 9 7 17 15 17 17 0 8 -8 3 -21 -13z"/>
<path d="M4585 3188 l-40 -43 43 40 c39 36 47 45 39 45 -2 0 -21 -19 -42 -42z"/>
<path d="M4709 3203 c-13 -16 -12 -17 4 -4 16 13 21 21 13 21 -2 0 -10 -8 -17
-17z"/>
<path d="M4659 3143 l-34 -38 38 34 c20 19 37 36 37 38 0 8 -8 0 -41 -34z"/>
<path d="M4449 3153 c-13 -16 -12 -17 4 -4 16 13 21 21 13 21 -2 0 -10 -8 -17
-17z"/>
<path d="M4439 3113 c-13 -16 -12 -17 4 -4 16 13 21 21 13 21 -2 0 -10 -8 -17
-17z"/>
<path d="M4599 3093 c-13 -16 -12 -17 4 -4 16 13 21 21 13 21 -2 0 -10 -8 -17
-17z"/>
<path d="M4369 3073 c-13 -16 -12 -17 4 -4 9 7 17 15 17 17 0 8 -8 3 -21 -13z"/>
<path d="M4302 3018 c-18 -11 -31 -23 -28 -25 6 -6 66 29 66 39 0 10 2 11 -38
-14z"/>
<path d="M3237 4219 c12 -12 25 -20 28 -17 3 3 -7 13 -22 23 l-28 17 22 -23z"/>
<path d="M3215 4210 c10 -11 20 -20 23 -20 3 0 -3 9 -13 20 -10 11 -20 20 -23
20 -3 0 3 -9 13 -20z"/>
<path d="M3130 4216 c0 -2 7 -9 15 -16 13 -11 14 -10 9 4 -5 14 -24 23 -24 12z"/>
<path d="M3120 4021 c0 -6 4 -13 10 -16 6 -3 7 1 4 9 -7 18 -14 21 -14 7z"/>
<path d="M3256 3967 c3 -10 9 -15 12 -12 3 3 0 11 -7 18 -10 9 -11 8 -5 -6z"/>
<path d="M2816 3903 c-4 -9 -4 -14 0 -10 4 4 14 1 23 -6 14 -11 15 -10 1 8 -8
11 -15 21 -16 23 -1 2 -5 -5 -8 -15z"/>
<path d="M3156 3847 c3 -10 9 -15 12 -12 3 3 0 11 -7 18 -10 9 -11 8 -5 -6z"/>
<path d="M3185 3735 c4 -27 13 -53 20 -57 7 -4 19 -37 26 -73 7 -36 17 -61 21
-57 8 8 -10 72 -52 182 l-21 55 6 -50z"/>
<path d="M3162 3685 c0 -16 2 -22 5 -12 2 9 2 23 0 30 -3 6 -5 -1 -5 -18z"/>
<path d="M3172 3625 c0 -16 2 -22 5 -12 2 9 2 23 0 30 -3 6 -5 -1 -5 -18z"/>
<path d="M3201 3614 c0 -11 3 -14 6 -6 3 7 2 16 -1 19 -3 4 -6 -2 -5 -13z"/>
<path d="M3762 3691 c8 -14 25 -25 43 -27 27 -3 27 -2 10 14 -14 14 -18 14
-23 3 -3 -11 -10 -8 -25 10 l-19 24 14 -24z"/>
<path d="M2943 3551 c-1 -33 3 -63 7 -66 5 -3 6 4 3 15 -8 29 4 25 22 -7 l15
-28 -6 30 c-4 17 -15 50 -24 74 l-17 44 0 -62z"/>
<path d="M3030 3590 c6 -11 13 -20 16 -20 2 0 0 9 -6 20 -6 11 -13 20 -16 20
-2 0 0 -9 6 -20z"/>
<path d="M3096 3537 c3 -10 9 -15 12 -12 3 3 0 11 -7 18 -10 9 -11 8 -5 -6z"/>
<path d="M3031 3515 c0 -5 9 -28 20 -50 10 -22 16 -29 13 -15 -7 28 -33 80
-33 65z"/>
<path d="M3070 3503 c0 -6 9 -21 21 -34 l20 -24 -17 30 c-24 39 -24 40 -24 28z"/>
<path d="M2730 3570 c6 -11 13 -20 16 -20 2 0 0 9 -6 20 -6 11 -13 20 -16 20
-2 0 0 -9 6 -20z"/>
<path d="M2770 3504 c33 -56 46 -66 21 -17 -11 23 -26 45 -33 49 -6 4 -1 -10
12 -32z"/>
<path d="M2839 3505 c5 -11 17 -29 26 -40 l16 -20 -10 20 c-5 11 -17 29 -26
40 l-16 20 10 -20z"/>
<path d="M3738 3408 c11 -20 19 -38 16 -40 -2 -3 5 -13 16 -23 26 -23 26 -5 0
28 -11 14 -20 30 -20 35 0 5 -7 16 -16 23 -12 10 -11 4 4 -23z"/>
<path d="M4010 3405 c-7 -9 -11 -17 -9 -20 3 -2 10 5 17 15 14 24 10 26 -8 5z"/>
<path d="M2951 3301 c-7 -5 -12 -14 -10 -20 3 -7 11 -3 21 9 18 21 13 26 -11
11z"/>
<path d="M3491 3248 c-1 -16 4 -28 9 -28 12 0 12 8 0 35 -8 18 -9 17 -9 -7z"/>
<path d="M3540 3150 c6 -11 13 -20 16 -20 2 0 0 9 -6 20 -6 11 -13 20 -16 20
-2 0 0 -9 6 -20z"/>
<path d="M3961 3144 c0 -11 3 -14 6 -6 3 7 2 16 -1 19 -3 4 -6 -2 -5 -13z"/>
<path d="M3470 3122 c0 -5 7 -15 15 -22 8 -7 15 -9 15 -6 0 4 -7 14 -15 22 -8
9 -15 11 -15 6z"/>
<path d="M3356 3090 c3 -14 10 -29 15 -34 14 -16 10 6 -7 34 l-15 25 7 -25z"/>
<path d="M3355 3013 c16 -34 29 -41 40 -23 3 6 -1 7 -9 4 -9 -3 -16 -2 -16 3
0 5 -7 18 -15 29 -14 17 -14 15 0 -13z"/>
<path d="M3165 3020 c3 -5 8 -10 11 -10 2 0 4 5 4 10 0 6 -5 10 -11 10 -5 0
-7 -4 -4 -10z"/>
<path d="M3709 2878 c0 -7 -2 -25 -3 -40 -2 -35 20 -37 28 -3 4 14 10 24 15
22 5 -1 8 3 8 8 -1 6 -8 9 -14 9 -7 -1 -13 2 -13 7 0 14 -20 11 -21 -3z"/>
<path d="M3847 2820 c3 -30 7 -57 9 -59 9 -10 3 85 -6 99 -6 10 -7 -3 -3 -40z"/>
<path d="M3608 2808 c4 -28 6 -30 12 -13 8 21 3 45 -9 45 -4 0 -5 -15 -3 -32z"/>
<path d="M3345 2820 c-3 -5 -2 -10 4 -10 5 0 13 5 16 10 3 6 2 10 -4 10 -5 0
-13 -4 -16 -10z"/>
<path d="M2598 2558 c3 -11 -1 -18 -10 -18 -8 0 -22 -16 -31 -35 -20 -42 -14
-47 8 -7 15 26 15 26 9 2 -4 -14 -9 -32 -11 -40 -3 -8 11 13 31 48 20 34 36
64 36 67 0 2 -8 3 -19 2 -12 -1 -17 -7 -13 -19z"/>
<path d="M2635 2559 c-4 -6 -5 -12 -2 -15 2 -3 7 2 10 11 7 17 1 20 -8 4z"/>
<path d="M2482 2648 c-7 -7 -12 -19 -12 -27 1 -11 6 -7 16 9 l15 25 -5 -30
c-5 -28 -5 -28 6 -7 14 27 -1 49 -20 30z"/>
<path d="M2407 2453 c-8 -14 -19 -73 -13 -73 6 0 27 72 22 78 -2 2 -6 0 -9 -5z"/>
<path d="M2381 2314 c0 -11 3 -14 6 -6 3 7 2 16 -1 19 -3 4 -6 -2 -5 -13z"/>
<path d="M2340 2251 c0 -11 4 -23 10 -26 6 -4 9 5 8 19 -3 30 -18 35 -18 7z"/>
<path d="M2640 2251 c0 -5 9 -11 20 -14 24 -6 27 8 4 17 -21 8 -24 8 -24 -3z"/>
<path d="M2579 2263 c-13 -16 -12 -17 4 -4 16 13 21 21 13 21 -2 0 -10 -8 -17
-17z"/>
<path d="M2540 2064 c-30 -11 -32 -13 -10 -13 14 0 36 6 50 14 31 18 7 17 -40
-1z"/>
</g>
</svg>
